<svg width="152" height="153" viewBox="0 0 152 153" fill="none" xmlns="http://www.w3.org/2000/svg">
<path d="M106.743 106.213C112.564 111.808 112.808 121.262 105.93 125.489C98.3752 130.131 89.791 132.999 80.8265 133.782C66.9647 134.993 53.134 131.135 41.8992 122.926C30.6645 114.716 22.7878 102.711 19.7297 89.1368C16.6717 75.5623 18.6398 61.3395 25.2691 49.1055C31.8984 36.8715 42.7392 27.4565 55.7811 22.6063C68.8231 17.756 83.1814 17.7996 96.1937 22.729C109.206 27.6583 119.989 37.139 126.544 49.413C130.783 57.3505 133.068 66.1081 133.304 74.9717C133.518 83.0422 125.465 88.0001 117.6 86.178C109.734 84.3559 105.216 76.1671 102.911 68.4298C102.374 66.6255 101.654 64.868 100.755 63.1855C97.5332 57.1523 92.2327 52.4921 85.8366 50.0691C79.4405 47.6461 72.3827 47.6247 65.972 50.0088C59.5613 52.3929 54.2326 57.0208 50.974 63.0344C47.7154 69.0479 46.7479 76.0391 48.2511 82.7116C49.7543 89.384 53.626 95.2851 59.1484 99.3204C64.6708 103.356 71.4692 105.252 78.283 104.657C80.1832 104.491 82.0486 104.134 83.8537 103.599C91.5944 101.306 100.922 100.619 106.743 106.213Z" fill="url(#paint0_linear_907_340)"/>
<rect x="90.3242" y="99" width="53" height="35" rx="16" fill="#FF8C68"/>
<path d="M106.387 123.227C103.777 123.227 101.996 121.875 101.996 119.953C101.996 118.492 103.027 117.344 104.559 117.055V117.016C103.277 116.688 102.441 115.695 102.441 114.469C102.441 112.758 104.09 111.5 106.387 111.5C108.691 111.5 110.324 112.75 110.324 114.477C110.324 115.688 109.496 116.672 108.215 117.016V117.055C109.746 117.352 110.785 118.5 110.785 119.953C110.785 121.883 108.98 123.227 106.387 123.227ZM106.387 121.688C107.738 121.688 108.691 120.891 108.691 119.805C108.691 118.703 107.738 117.914 106.387 117.914C105.035 117.914 104.082 118.711 104.082 119.805C104.082 120.891 105.035 121.688 106.387 121.688ZM106.387 116.375C107.52 116.375 108.332 115.672 108.332 114.703C108.332 113.727 107.527 113.023 106.387 113.023C105.238 113.023 104.434 113.727 104.434 114.703C104.434 115.672 105.238 116.375 106.387 116.375ZM116.352 123.227C113.742 123.227 111.961 121.875 111.961 119.953C111.961 118.492 112.992 117.344 114.524 117.055V117.016C113.242 116.688 112.406 115.695 112.406 114.469C112.406 112.758 114.055 111.5 116.352 111.5C118.656 111.5 120.289 112.75 120.289 114.477C120.289 115.688 119.461 116.672 118.18 117.016V117.055C119.711 117.352 120.75 118.5 120.75 119.953C120.75 121.883 118.945 123.227 116.352 123.227ZM116.352 121.688C117.703 121.688 118.656 120.891 118.656 119.805C118.656 118.703 117.703 117.914 116.352 117.914C115 117.914 114.047 118.711 114.047 119.805C114.047 120.891 115 121.688 116.352 121.688ZM116.352 116.375C117.485 116.375 118.297 115.672 118.297 114.703C118.297 113.727 117.492 113.023 116.352 113.023C115.203 113.023 114.399 113.727 114.399 114.703C114.399 115.672 115.203 116.375 116.352 116.375ZM133.231 120.266C133.231 122.023 132.262 123.148 130.739 123.148C129.223 123.148 128.246 122.023 128.246 120.266C128.246 118.516 129.215 117.398 130.739 117.398C132.27 117.398 133.231 118.516 133.231 120.266ZM130.739 121.93C131.317 121.93 131.668 121.297 131.668 120.266C131.668 119.227 131.332 118.617 130.739 118.617C130.168 118.617 129.817 119.242 129.817 120.266C129.817 121.289 130.168 121.93 130.739 121.93ZM126.606 114.344C126.606 116.102 125.637 117.227 124.114 117.227C122.598 117.227 121.621 116.102 121.621 114.344C121.621 112.594 122.59 111.477 124.114 111.477C125.645 111.477 126.606 112.594 126.606 114.344ZM124.114 116.008C124.692 116.008 125.043 115.375 125.043 114.344C125.043 113.305 124.707 112.695 124.114 112.695C123.543 112.695 123.192 113.32 123.192 114.344C123.192 115.367 123.543 116.008 124.114 116.008ZM124.145 123H122.379L130.614 111.727H132.371L124.145 123Z" fill="#19191B"/>
<defs>
<linearGradient id="paint0_linear_907_340" x1="98.4727" y1="94.3756" x2="52.6014" y2="23.8981" gradientUnits="userSpaceOnUse">
<stop stop-color="#FFD4AC"/>
<stop offset="0.693925" stop-color="#FFF1E3"/>
</linearGradient>
</defs>
</svg>
