<svg width="124" height="124" viewBox="0 0 124 124" fill="none" xmlns="http://www.w3.org/2000/svg">
<circle opacity="0.1" cx="62" cy="62" r="62" fill="#FF8C68"/>
<ellipse opacity="0.2" cx="62.5" cy="62" rx="39.5" ry="40" fill="#FF8C68"/>
<circle cx="62" cy="62" r="26" fill="#FF8C68"/>
<path d="M67.5196 50.7603H57.2125C54.05 50.7603 51.4863 53.3299 51.4863 56.4996V66.8305C51.4863 70.0003 54.05 72.5699 57.2125 72.5699H67.5196C70.682 72.5699 73.2457 70.0003 73.2457 66.8305V56.4996C73.2457 53.3299 70.682 50.7603 67.5196 50.7603Z" fill="#19191B"/>
<path d="M62.6196 56.1125C61.8842 55.3754 60.6919 55.3754 59.9565 56.1125C59.2212 56.8496 59.2212 58.0447 59.9565 58.7818L62.9525 61.7847C63.6879 62.5217 64.8802 62.5217 65.6156 61.7847C66.351 61.0476 66.351 59.8525 65.6156 59.1154L62.6196 56.1125Z" fill="white"/>
<path d="M61.2056 61.2008C60.4702 60.4637 59.2779 60.4637 58.5425 61.2008C57.8071 61.9379 57.8071 63.1329 58.5425 63.87L61.5385 66.8729C62.2738 67.61 63.4661 67.61 64.2015 66.8729C64.9369 66.1358 64.9369 64.9408 64.2015 64.2037L61.2056 61.2008Z" fill="white"/>
</svg>
