<svg width="56" height="56" viewBox="0 0 56 56" fill="none" xmlns="http://www.w3.org/2000/svg">
<circle cx="28" cy="28" r="28" fill="white"/>
<path d="M40 27.0001C39.8705 27.7262 39.5819 28.4147 39.155 29.0161L30.372 40.8363C30.0935 41.196 29.7369 41.4877 29.3291 41.6893C28.9213 41.8909 28.473 41.9971 28.0181 41.9999C27.5631 42.0027 27.1135 41.902 26.7033 41.7055C26.293 41.5089 25.9329 41.2216 25.65 40.8653L16.824 28.8001C16.4491 28.2569 16.1844 27.6453 16.045 27.0001H22.313L27.066 39.3592C27.1383 39.5483 27.2663 39.711 27.4331 39.8258C27.5999 39.9405 27.7976 40.002 28 40.002C28.2024 40.002 28.4001 39.9405 28.5669 39.8258C28.7337 39.711 28.8617 39.5483 28.934 39.3592L33.687 27.0001H40ZM33.7 25.0001H39.957C39.8049 24.3235 39.513 23.6862 39.1 23.1291L36.542 19.675C36.1716 19.1573 35.6831 18.7353 35.117 18.444C34.551 18.1527 33.9236 18.0005 33.287 18H31.087L33.7 25.0001ZM27.108 18L24.449 25.0001H31.561L28.955 18H27.108ZM22.31 25.0001L24.968 18H22.646C22.0148 17.9994 21.3924 18.1485 20.8301 18.4352C20.2677 18.7219 19.7813 19.1379 19.411 19.649L16.938 22.8911C16.4648 23.5111 16.1435 24.2334 16 25.0001H22.31ZM31.544 27.0001H24.456L28 36.2142L31.544 27.0001Z" fill="#FF8C68"/>
</svg>
