<svg width="75" height="75" viewBox="0 0 75 75" fill="none" xmlns="http://www.w3.org/2000/svg">
<circle opacity="0.2" cx="37.5" cy="37.5" r="37.5" fill="white"/>
<circle opacity="0.4" cx="37.5" cy="37.5" r="23.5" fill="white"/>
<circle cx="37.5" cy="37.5" r="15.5" fill="white"/>
<path d="M40.8382 30.7017H34.604C32.6912 30.7017 31.1406 32.2559 31.1406 34.1731V40.4216C31.1406 42.3388 32.6912 43.893 34.604 43.893H40.8382C42.7509 43.893 44.3016 42.3388 44.3016 40.4216V34.1731C44.3016 32.2559 42.7509 30.7017 40.8382 30.7017Z" fill="#19191B"/>
<path d="M37.8751 33.939C37.4303 33.4931 36.7091 33.4931 36.2644 33.939C35.8196 34.3848 35.8196 35.1076 36.2644 35.5534L38.0764 37.3697C38.5212 37.8155 39.2424 37.8155 39.6872 37.3697C40.132 36.9239 40.132 36.201 39.6872 35.7552L37.8751 33.939Z" fill="white"/>
<path d="M37.0196 37.0166C36.5748 36.5708 35.8537 36.5708 35.4089 37.0166C34.9641 37.4625 34.9641 38.1853 35.4089 38.6311L37.221 40.4474C37.6658 40.8932 38.3869 40.8932 38.8317 40.4474C39.2765 40.0015 39.2765 39.2787 38.8317 38.8329L37.0196 37.0166Z" fill="white"/>
</svg>
