<svg width="171" height="171" viewBox="0 0 171 171" fill="none" xmlns="http://www.w3.org/2000/svg">
<circle opacity="0.1" cx="85.5" cy="85.5" r="85.5" fill="#FF8C68"/>
<circle opacity="0.2" cx="86.5" cy="85.5" r="54.5" fill="#FF8C68"/>
<circle cx="86" cy="85" r="36" fill="#FF8C68"/>
<path d="M93.1104 70H78.8966C74.5354 70 71 73.5436 71 77.9148V92.1614C71 96.5327 74.5354 100.076 78.8966 100.076H93.1104C97.4715 100.076 101.007 96.5327 101.007 92.1614V77.9148C101.007 73.5436 97.4715 70 93.1104 70Z" fill="#19191B"/>
<path d="M86.3529 77.3808C85.3388 76.3644 83.6946 76.3644 82.6805 77.3808C81.6663 78.3973 81.6663 80.0453 82.6805 81.0618L86.812 85.2029C87.8261 86.2194 89.4704 86.2194 90.4845 85.2029C91.4986 84.1864 91.4986 82.5384 90.4845 81.5219L86.3529 77.3808Z" fill="white"/>
<path d="M84.4047 84.3977C83.3906 83.3813 81.7464 83.3813 80.7322 84.3977C79.7181 85.4142 79.7181 87.0622 80.7322 88.0787L84.8638 92.2198C85.8779 93.2362 87.5221 93.2362 88.5362 92.2198C89.5504 91.2033 89.5504 89.5553 88.5362 88.5388L84.4047 84.3977Z" fill="white"/>
</svg>
