<svg width="128" height="38" viewBox="0 0 128 38" fill="none" xmlns="http://www.w3.org/2000/svg">
<rect width="38" height="38" rx="10" fill="#FEDE30"/>
<rect x="12.4668" y="11.6509" width="6.57712" height="13.9764" rx="3.28856" transform="rotate(-45 12.4668 11.6509)" fill="#19191B"/>
<rect x="10" y="20.5166" width="6.57712" height="13.9764" rx="3.28856" transform="rotate(-45 10 20.5166)" fill="#19191B"/>
<path d="M74.908 11.672C74.44 11.672 74.102 11.8453 73.894 12.192C73.7033 12.5387 73.608 13.128 73.608 13.96V24.88C73.608 25.712 73.7033 26.3013 73.894 26.648C74.102 26.9947 74.44 27.168 74.908 27.168V28H68.72V27.168C69.188 27.168 69.5173 26.9947 69.708 26.648C69.916 26.3013 70.02 25.712 70.02 24.88V14.22L63.988 28H60.062L53.848 14.22V24.88C53.848 25.712 53.9433 26.3013 54.134 26.648C54.342 26.9947 54.68 27.168 55.148 27.168V28H51.04V27.168C51.508 27.168 51.8373 26.9947 52.028 26.648C52.236 26.3013 52.34 25.712 52.34 24.88V13.96C52.34 13.128 52.236 12.5387 52.028 12.192C51.8373 11.8453 51.508 11.672 51.04 11.672V10.84H52.756C53.744 10.84 54.4893 10.892 54.992 10.996C55.4947 11.0827 55.9367 11.308 56.318 11.672C56.6993 12.036 57.072 12.6253 57.436 13.44L63.234 26.388L68.876 13.44C69.2053 12.6773 69.5867 12.114 70.02 11.75C70.4533 11.3687 70.904 11.126 71.372 11.022C71.8573 10.918 72.464 10.8573 73.192 10.84H74.908V11.672ZM79.2392 13.752C78.6499 13.752 78.1819 13.6047 77.8352 13.31C77.5059 13.0153 77.3412 12.6253 77.3412 12.14C77.3412 11.6893 77.5146 11.3167 77.8612 11.022C78.2079 10.7273 78.6672 10.58 79.2392 10.58C79.8112 10.58 80.2706 10.736 80.6172 11.048C80.9639 11.3427 81.1372 11.7067 81.1372 12.14C81.1372 12.608 80.9639 12.998 80.6172 13.31C80.2706 13.6047 79.8112 13.752 79.2392 13.752ZM81.2932 24.88C81.2932 25.712 81.3886 26.3013 81.5792 26.648C81.7872 26.9947 82.1252 27.168 82.5932 27.168V28H76.4052V27.168C76.8732 27.168 77.2026 26.9947 77.3932 26.648C77.6012 26.3013 77.7052 25.712 77.7052 24.88V18.12C77.7052 17.288 77.6012 16.6987 77.3932 16.352C77.2026 16.0053 76.8732 15.832 76.4052 15.832V15H78.1212C78.9359 15 79.5512 15.0433 79.9672 15.13C80.4006 15.2167 80.7299 15.4247 80.9552 15.754C81.1806 16.066 81.2932 16.5687 81.2932 17.262V24.88ZM94.0355 14.74C96.1155 14.74 97.1555 15.7887 97.1555 17.886C97.1555 18.666 97.0081 19.6193 96.7135 20.746L93.1255 20.226C93.6628 19.03 93.9315 18.068 93.9315 17.34C93.9315 16.508 93.5415 16.092 92.7615 16.092C92.0335 16.092 91.3661 16.4473 90.7595 17.158C90.1528 17.8513 89.6675 18.7527 89.3035 19.862C88.9568 20.9713 88.7835 22.124 88.7835 23.32V24.88C88.7835 25.712 88.8788 26.3013 89.0695 26.648C89.2775 26.9947 89.6155 27.168 90.0835 27.168V28H83.8955V27.168C84.3635 27.168 84.6928 26.9947 84.8835 26.648C85.0915 26.3013 85.1955 25.712 85.1955 24.88V18.12C85.1955 17.288 85.0915 16.6987 84.8835 16.352C84.6928 16.0053 84.3635 15.832 83.8955 15.832V15H85.6115C86.3915 15 86.9981 15.0433 87.4315 15.13C87.8648 15.2167 88.1941 15.416 88.4195 15.728C88.6621 16.04 88.7835 16.5167 88.7835 17.158V18.744H89.0435C89.3555 17.7213 89.9361 16.8027 90.7855 15.988C91.6521 15.156 92.7355 14.74 94.0355 14.74ZM110.776 17.704C110.88 17.392 110.932 17.1407 110.932 16.95C110.932 16.7073 110.871 16.534 110.75 16.43C110.628 16.3087 110.481 16.248 110.308 16.248C109.926 16.248 109.623 16.378 109.398 16.638C110.022 17.3833 110.334 18.3107 110.334 19.42C110.334 20.824 109.814 21.9593 108.774 22.826C107.734 23.6753 106.278 24.1 104.406 24.1C103.504 24.1 102.664 23.9873 101.884 23.762C101.416 24.1087 101.182 24.438 101.182 24.75C101.182 24.9927 101.286 25.166 101.494 25.27C101.702 25.374 102.074 25.426 102.612 25.426C103.045 25.426 103.764 25.3827 104.77 25.296C105.324 25.2613 105.723 25.244 105.966 25.244C107.595 25.244 108.878 25.5473 109.814 26.154C110.75 26.7607 111.218 27.6967 111.218 28.962C111.218 30.47 110.585 31.5967 109.32 32.342C108.072 33.0873 106.494 33.46 104.588 33.46C102.75 33.46 101.216 33.148 99.9856 32.524C98.7549 31.9173 98.1396 30.912 98.1396 29.508C98.1396 29.092 98.2003 28.65 98.3216 28.182L101.91 28.702C101.702 29.274 101.598 29.768 101.598 30.184C101.598 31.4667 102.586 32.108 104.562 32.108C105.584 32.108 106.347 31.8827 106.85 31.432C107.37 30.9813 107.63 30.3313 107.63 29.482C107.63 28.8407 107.482 28.364 107.188 28.052C106.91 27.74 106.503 27.5407 105.966 27.454C105.446 27.3673 104.735 27.3327 103.834 27.35C103.522 27.3673 103.088 27.376 102.534 27.376C101.234 27.376 100.289 27.246 99.6996 26.986C99.1276 26.726 98.8416 26.2493 98.8416 25.556C98.8416 25.0707 99.0149 24.6287 99.3616 24.23C99.7083 23.814 100.168 23.4933 100.74 23.268C100.012 22.8693 99.4483 22.3407 99.0496 21.682C98.6683 21.006 98.4776 20.252 98.4776 19.42C98.4776 18.016 98.9976 16.8893 100.038 16.04C101.078 15.1733 102.534 14.74 104.406 14.74C106.174 14.74 107.569 15.13 108.592 15.91C108.852 15.546 109.19 15.26 109.606 15.052C110.022 14.844 110.481 14.74 110.984 14.74C111.712 14.74 112.24 14.9133 112.57 15.26C112.899 15.6067 113.064 16.0573 113.064 16.612C113.064 16.7507 113.046 16.9413 113.012 17.184L110.776 17.704ZM104.64 22.722C105.385 22.722 105.94 22.5053 106.304 22.072C106.685 21.6387 106.876 21.058 106.876 20.33C106.876 19.8793 106.815 19.4373 106.694 19.004C106.226 17.0973 105.376 16.144 104.146 16.144C103.418 16.144 102.863 16.3607 102.482 16.794C102.118 17.2273 101.936 17.7993 101.936 18.51C101.936 18.9607 101.996 19.4027 102.118 19.836C102.551 21.76 103.392 22.722 104.64 22.722ZM125.835 24.776C125.835 25.7293 126.052 26.206 126.485 26.206C126.659 26.206 126.875 26.128 127.135 25.972V26.96C126.927 27.2893 126.598 27.5493 126.147 27.74C125.714 27.9133 125.237 28 124.717 28C124.093 28 123.539 27.8787 123.053 27.636C122.585 27.376 122.317 26.9167 122.247 26.258V26.076H121.987C121.571 26.7173 120.956 27.246 120.141 27.662C119.327 28.0607 118.365 28.26 117.255 28.26C114.465 28.26 113.069 27.1767 113.069 25.01C113.069 23.346 113.945 22.1587 115.695 21.448C117.446 20.7373 119.621 20.2347 122.221 19.94C122.187 18.9867 122.091 18.2413 121.935 17.704C121.779 17.1667 121.511 16.768 121.129 16.508C120.748 16.2307 120.219 16.092 119.543 16.092C118.746 16.092 118.131 16.2567 117.697 16.586C117.281 16.898 117.073 17.3573 117.073 17.964C117.073 18.328 117.169 18.77 117.359 19.29L113.927 19.966C113.823 19.5673 113.771 19.186 113.771 18.822C113.771 18.042 114.005 17.3487 114.473 16.742C114.941 16.118 115.635 15.6327 116.553 15.286C117.489 14.922 118.607 14.74 119.907 14.74C121.346 14.74 122.49 14.9567 123.339 15.39C124.206 15.806 124.839 16.482 125.237 17.418C125.636 18.3367 125.835 19.576 125.835 21.136V24.776ZM122.247 22.696V21.266C120.601 21.4393 119.257 21.8293 118.217 22.436C117.177 23.0427 116.657 23.8487 116.657 24.854C116.657 25.5473 116.805 26.0673 117.099 26.414C117.411 26.7433 117.879 26.908 118.503 26.908C119.214 26.908 119.855 26.7087 120.427 26.31C120.999 25.9113 121.441 25.4087 121.753 24.802C122.083 24.1953 122.247 23.5973 122.247 23.008V22.696Z" fill="#19191B"/>
</svg>
