<svg width="106" height="32" viewBox="0 0 106 32" fill="none" xmlns="http://www.w3.org/2000/svg">
<g clip-path="url(#clip0_231_2269)">
<path d="M23.1875 0H8.28125C3.70764 0 0 3.77023 0 8.42105V23.5789C0 28.2298 3.70764 32 8.28125 32H23.1875C27.7611 32 31.4688 28.2298 31.4688 23.5789V8.42105C31.4688 3.77023 27.7611 0 23.1875 0Z" fill="#FEE034"/>
<path d="M16.0993 7.85283C15.0358 6.77135 13.3115 6.77135 12.248 7.85283C11.1844 8.93432 11.1844 10.6878 12.248 11.7692L16.5808 16.1752C17.6443 17.2567 19.3686 17.2567 20.4322 16.1752C21.4957 15.0937 21.4957 13.3403 20.4322 12.2588L16.0993 7.85283Z" fill="#19191B"/>
<path d="M14.0583 15.3187C12.9948 14.2372 11.2705 14.2372 10.2069 15.3187C9.14341 16.4001 9.14341 18.1536 10.2069 19.2351L14.5398 23.641C15.6033 24.7225 17.3276 24.7225 18.3911 23.641C19.4547 22.5595 19.4547 20.8061 18.3911 19.7246L14.0583 15.3187Z" fill="#19191B"/>
<path d="M62.0333 9.829C61.6457 9.829 61.3658 9.97494 61.1935 10.2669C61.0356 10.5589 60.9567 11.0551 60.9567 11.7557V20.9515C60.9567 21.6522 61.0356 22.1484 61.1935 22.4404C61.3658 22.7323 61.6457 22.8783 62.0333 22.8783V23.5789H56.9088V22.8783C57.2964 22.8783 57.5691 22.7323 57.727 22.4404C57.8993 22.1484 57.9854 21.6522 57.9854 20.9515V11.9747L52.9901 23.5789H49.7389L44.593 11.9747V20.9515C44.593 21.6522 44.6719 22.1484 44.8298 22.4404C45.002 22.7323 45.282 22.8783 45.6695 22.8783V23.5789H42.2676V22.8783C42.6551 22.8783 42.9278 22.7323 43.0858 22.4404C43.258 22.1484 43.3441 21.6522 43.3441 20.9515V11.7557C43.3441 11.0551 43.258 10.5589 43.0858 10.2669C42.9278 9.97494 42.6551 9.829 42.2676 9.829V9.12837H43.6886C44.5068 9.12837 45.124 9.17216 45.5403 9.25974C45.9566 9.33275 46.3227 9.52248 46.6384 9.829C46.9542 10.1355 47.2628 10.6318 47.5643 11.3178L52.3657 22.2214L57.038 11.3178C57.3107 10.6756 57.6266 10.2012 57.9854 9.89469C58.3442 9.57359 58.7175 9.36921 59.105 9.28163C59.5069 9.19406 60.0093 9.14294 60.6122 9.12837H62.0333V9.829ZM65.62 11.5806C65.132 11.5806 64.7445 11.4565 64.4574 11.2084C64.1847 10.9602 64.0483 10.6318 64.0483 10.2231C64.0483 9.84357 64.1919 9.5298 64.4789 9.28163C64.766 9.03347 65.1464 8.90942 65.62 8.90942C66.0937 8.90942 66.4742 9.04079 66.7612 9.30353C67.0483 9.5517 67.1918 9.85822 67.1918 10.2231C67.1918 10.6172 67.0483 10.9456 66.7612 11.2084C66.4742 11.4565 66.0937 11.5806 65.62 11.5806ZM67.321 20.9515C67.321 21.6522 67.4 22.1484 67.5579 22.4404C67.7301 22.7323 68.01 22.8783 68.3976 22.8783V23.5789H63.2731V22.8783C63.6607 22.8783 63.9335 22.7323 64.0913 22.4404C64.2636 22.1484 64.3497 21.6522 64.3497 20.9515V15.2589C64.3497 14.5583 64.2636 14.062 64.0913 13.7701C63.9335 13.4781 63.6607 13.3322 63.2731 13.3322V12.6315H64.6942C65.3689 12.6315 65.8784 12.668 66.2229 12.741C66.5818 12.814 66.8545 12.9892 67.0411 13.2665C67.2278 13.5292 67.321 13.9525 67.321 14.5364V20.9515ZM77.8732 12.4126C79.5957 12.4126 80.457 13.2957 80.457 15.0618C80.457 15.7187 80.3349 16.5215 80.091 17.4703L77.1196 17.0324C77.5646 16.0252 77.7871 15.2151 77.7871 14.6021C77.7871 13.9014 77.4641 13.5511 76.8182 13.5511C76.2153 13.5511 75.6626 13.8503 75.1603 14.4488C74.6579 15.0326 74.256 15.7917 73.9545 16.7258C73.6674 17.66 73.5239 18.6307 73.5239 19.6378V20.9515C73.5239 21.6522 73.6028 22.1484 73.7608 22.4404C73.933 22.7323 74.2129 22.8783 74.6005 22.8783V23.5789H69.476V22.8783C69.8636 22.8783 70.1363 22.7323 70.2942 22.4404C70.4665 22.1484 70.5526 21.6522 70.5526 20.9515V15.2589C70.5526 14.5583 70.4665 14.062 70.2942 13.7701C70.1363 13.4781 69.8636 13.3322 69.476 13.3322V12.6315H70.8971C71.543 12.6315 72.0454 12.668 72.4043 12.741C72.7631 12.814 73.0358 12.9818 73.2225 13.2446C73.4234 13.5073 73.5239 13.9088 73.5239 14.4488V15.7844H73.7392C73.9976 14.9232 74.4784 14.1496 75.1818 13.4635C75.8995 12.7629 76.7967 12.4126 77.8732 12.4126ZM91.7365 14.9086C91.8226 14.6458 91.8656 14.4342 91.8656 14.2736C91.8656 14.0693 91.8151 13.9233 91.7149 13.8357C91.6139 13.7336 91.4922 13.6825 91.3489 13.6825C91.0326 13.6825 90.7816 13.792 90.5953 14.0109C91.1121 14.6385 91.3704 15.4195 91.3704 16.3536C91.3704 17.536 90.9398 18.492 90.0786 19.2218C89.2173 19.937 88.0116 20.2947 86.4613 20.2947C85.7143 20.2947 85.0187 20.1998 84.3728 20.0101C83.9852 20.302 83.7914 20.5793 83.7914 20.8421C83.7914 21.0464 83.8776 21.1924 84.0498 21.28C84.2221 21.3675 84.5301 21.4113 84.9756 21.4113C85.3342 21.4113 85.9296 21.3749 86.7627 21.3018C87.2215 21.2726 87.5519 21.2581 87.7532 21.2581C89.1022 21.2581 90.1647 21.5135 90.9398 22.0244C91.7149 22.5353 92.1025 23.3235 92.1025 24.389C92.1025 25.6589 91.5783 26.6077 90.5307 27.2353C89.4972 27.8629 88.1904 28.1768 86.612 28.1768C85.0899 28.1768 83.8196 27.9141 82.8007 27.3886C81.7815 26.8777 81.2719 26.0311 81.2719 24.8488C81.2719 24.4985 81.3222 24.1263 81.4227 23.7322L84.3943 24.1701C84.2221 24.6517 84.1359 25.0677 84.1359 25.4181C84.1359 26.4982 84.9541 27.0383 86.5905 27.0383C87.4368 27.0383 88.0687 26.8485 88.4852 26.469C88.9159 26.0895 89.1312 25.5421 89.1312 24.8269C89.1312 24.2869 89.0086 23.8854 88.7651 23.6227C88.5349 23.36 88.1979 23.1921 87.7532 23.1191C87.3226 23.0461 86.7338 23.017 85.9876 23.0315C85.7292 23.0461 85.3698 23.0534 84.911 23.0534C83.8345 23.0534 83.0519 22.944 82.5638 22.725C82.0901 22.5061 81.8533 22.1046 81.8533 21.5208C81.8533 21.1121 81.9968 20.7399 82.2839 20.4042C82.571 20.0538 82.9517 19.7838 83.4254 19.5941C82.8225 19.2583 82.3557 18.8132 82.0255 18.2585C81.7098 17.6892 81.5518 17.0543 81.5518 16.3536C81.5518 15.1713 81.9825 14.2225 82.8441 13.5073C83.7053 12.7775 84.9111 12.4126 86.4613 12.4126C87.9254 12.4126 89.0807 12.741 89.9278 13.3978C90.1432 13.0913 90.4231 12.8505 90.7676 12.6753C91.1121 12.5002 91.4922 12.4126 91.9087 12.4126C92.5116 12.4126 92.9488 12.5585 93.2221 12.8505C93.4946 13.1424 93.6312 13.5219 93.6312 13.989C93.6312 14.1058 93.6163 14.2663 93.5881 14.4707L91.7365 14.9086ZM86.6551 19.1343C87.272 19.1343 87.7316 18.9518 88.0331 18.5869C88.3486 18.222 88.5068 17.733 88.5068 17.12C88.5068 16.7404 88.4563 16.3682 88.3561 16.0033C87.9685 14.3977 87.2646 13.5949 86.246 13.5949C85.6431 13.5949 85.1835 13.7774 84.868 14.1423C84.5666 14.5072 84.4158 14.9888 84.4158 15.5873C84.4158 15.9669 84.4655 16.3391 84.5665 16.704C84.9251 18.3242 85.6216 19.1343 86.6551 19.1343ZM104.207 20.8639C104.207 21.6667 104.387 22.0682 104.745 22.0682C104.89 22.0682 105.068 22.0025 105.284 21.8711V22.7031C105.112 22.9804 104.839 23.1994 104.466 23.36C104.107 23.5059 103.712 23.5789 103.281 23.5789C102.765 23.5789 102.306 23.4768 101.903 23.2724C101.516 23.0534 101.294 22.6666 101.236 22.1119V21.9587H101.021C100.676 22.4987 100.167 22.944 99.4919 23.2943C98.8178 23.63 98.0211 23.7978 97.1019 23.7978C94.7914 23.7978 93.6353 22.8856 93.6353 21.061C93.6353 19.6597 94.3608 18.6599 95.81 18.0614C97.2601 17.4629 99.0612 17.0397 101.214 16.7915C101.186 15.9888 101.107 15.361 100.978 14.9086C100.848 14.4561 100.626 14.1204 100.31 13.9014C99.9945 13.6679 99.5564 13.5511 98.9966 13.5511C98.3366 13.5511 97.8273 13.6898 97.4679 13.9671C97.1234 14.2298 96.9512 14.6166 96.9512 15.1275C96.9512 15.4341 97.0307 15.8063 97.188 16.2442L94.3459 16.8134C94.2598 16.4777 94.2167 16.1566 94.2167 15.8501C94.2167 15.1932 94.4105 14.6094 94.798 14.0985C95.1856 13.573 95.7603 13.1643 96.5205 12.8724C97.2957 12.5658 98.2215 12.4126 99.2981 12.4126C100.49 12.4126 101.437 12.5951 102.14 12.96C102.858 13.3103 103.382 13.8795 103.712 14.6677C104.042 15.4414 104.207 16.485 104.207 17.7987V20.8639ZM101.236 19.1124V17.9082C99.8728 18.0541 98.7598 18.3825 97.8985 18.8934C97.0373 19.4043 96.6067 20.0831 96.6067 20.9296C96.6067 21.5135 96.7292 21.9514 96.9727 22.2433C97.2311 22.5206 97.6186 22.6593 98.1354 22.6593C98.7242 22.6593 99.255 22.4915 99.7287 22.1557C100.202 21.82 100.568 21.3968 100.827 20.8858C101.1 20.3749 101.236 19.8714 101.236 19.3751V19.1124Z" fill="white"/>
</g>
<defs>
<clipPath id="clip0_231_2269">
<rect width="106" height="32" fill="white"/>
</clipPath>
</defs>
</svg>
