<svg width="205" height="61" viewBox="0 0 205 61" fill="none" xmlns="http://www.w3.org/2000/svg">
<path d="M44.8438 0H16.0156C7.17044 0 0 7.18701 0 16.0526V44.9474C0 53.813 7.17044 61 16.0156 61H44.8438C53.6889 61 60.8594 53.813 60.8594 44.9474V16.0526C60.8594 7.18701 53.6889 0 44.8438 0Z" fill="#FEDE30"/>
<path d="M31.1394 14.9698C29.0826 12.9082 25.7478 12.9082 23.691 14.9698C21.6342 17.0314 21.6342 20.3739 23.691 22.4355L32.0705 30.8343C34.1273 32.8959 37.4621 32.8959 39.5189 30.8343C41.5758 28.7727 41.5758 25.4303 39.5189 23.3687L31.1394 14.9698Z" fill="#19191B"/>
<path d="M27.1883 29.2013C25.1314 27.1397 21.7967 27.1397 19.7398 29.2013C17.683 31.2628 17.683 34.6053 19.7398 36.6669L28.1193 45.0658C30.1762 47.1273 33.5109 47.1274 35.5678 45.0658C37.6246 43.0042 37.6246 39.6617 35.5678 37.6001L27.1883 29.2013Z" fill="#19191B"/>
<path d="M119.97 18.7368C119.221 18.7368 118.679 19.015 118.346 19.5716C118.041 20.1281 117.888 21.0741 117.888 22.4097V39.9391C117.888 41.2747 118.041 42.2207 118.346 42.7773C118.679 43.3338 119.221 43.612 119.97 43.612V44.9476H110.06V43.612C110.809 43.612 111.337 43.3338 111.642 42.7773C111.975 42.2207 112.142 41.2747 112.142 39.9391V22.827L102.481 44.9476H96.1934L86.2413 22.827V39.9391C86.2413 41.2747 86.394 42.2207 86.6994 42.7773C87.0325 43.3338 87.5738 43.612 88.3234 43.612V44.9476H81.7441V43.612C82.4937 43.612 83.0211 43.3338 83.3265 42.7773C83.6596 42.2207 83.8262 41.2747 83.8262 39.9391V22.4097C83.8262 21.0741 83.6596 20.1281 83.3265 19.5716C83.0211 19.015 82.4937 18.7368 81.7441 18.7368V17.4013H84.4924C86.0748 17.4013 87.2684 17.4847 88.0735 17.6517C88.8786 17.7909 89.5865 18.1525 90.1972 18.7368C90.8079 19.3212 91.4048 20.2671 91.9877 21.5749L101.274 42.3599L110.31 21.5749C110.837 20.3506 111.448 19.4464 112.142 18.862C112.836 18.25 113.558 17.8604 114.307 17.6934C115.084 17.5265 116.056 17.429 117.222 17.4013H119.97V18.7368ZM126.907 22.0758C125.963 22.0758 125.214 21.8393 124.658 21.3663C124.131 20.8932 123.867 20.2671 123.867 19.4881C123.867 18.7646 124.145 18.1665 124.7 17.6934C125.255 17.2203 125.991 16.9839 126.907 16.9839C127.823 16.9839 128.559 17.2343 129.114 17.7352C129.669 18.2082 129.947 18.7925 129.947 19.4881C129.947 20.2394 129.669 20.8654 129.114 21.3663C128.559 21.8393 127.823 22.0758 126.907 22.0758ZM130.197 39.9391C130.197 41.2747 130.349 42.2207 130.655 42.7773C130.988 43.3338 131.529 43.612 132.279 43.612V44.9476H122.368V43.612C123.118 43.612 123.645 43.3338 123.95 42.7773C124.284 42.2207 124.45 41.2747 124.45 39.9391V29.0876C124.45 27.752 124.284 26.806 123.95 26.2495C123.645 25.6929 123.118 25.4147 122.368 25.4147V24.0792H125.116C126.421 24.0792 127.407 24.1487 128.073 24.2878C128.767 24.427 129.294 24.7609 129.655 25.2895C130.016 25.7904 130.197 26.5973 130.197 27.7103V39.9391ZM150.604 23.6618C153.935 23.6618 155.601 25.3452 155.601 28.7119C155.601 29.964 155.365 31.4943 154.893 33.303L149.147 32.4683C150.007 30.5484 150.438 29.0041 150.438 27.8355C150.438 26.4999 149.813 25.8321 148.564 25.8321C147.398 25.8321 146.329 26.4024 145.357 27.5433C144.386 28.6562 143.608 30.1032 143.026 31.8839C142.47 33.6647 142.193 35.515 142.193 37.4349V39.9391C142.193 41.2747 142.345 42.2207 142.651 42.7773C142.984 43.3338 143.525 43.612 144.275 43.612V44.9476H134.364V43.612C135.114 43.612 135.641 43.3338 135.947 42.7773C136.28 42.2207 136.446 41.2747 136.446 39.9391V29.0876C136.446 27.752 136.28 26.806 135.947 26.2495C135.641 25.6929 135.114 25.4147 134.364 25.4147V24.0792H137.113C138.362 24.0792 139.333 24.1487 140.027 24.2878C140.721 24.427 141.249 24.7469 141.61 25.2478C141.998 25.7486 142.193 26.5139 142.193 27.5433V30.0893H142.609C143.109 28.4476 144.039 26.973 145.399 25.6652C146.787 24.3296 148.522 23.6618 150.604 23.6618ZM177.415 28.4198C177.582 27.9189 177.665 27.5155 177.665 27.2094C177.665 26.8198 177.567 26.5416 177.373 26.3747C177.178 26.18 176.943 26.0825 176.666 26.0825C176.054 26.0825 175.568 26.2912 175.208 26.7086C176.208 27.905 176.707 29.3937 176.707 31.1744C176.707 33.4282 175.874 35.2507 174.209 36.6419C172.543 38.0053 170.211 38.687 167.213 38.687C165.769 38.687 164.423 38.5061 163.174 38.1445C162.424 38.701 162.05 39.2296 162.05 39.7305C162.05 40.1201 162.216 40.3983 162.549 40.5652C162.883 40.7322 163.478 40.8156 164.34 40.8156C165.033 40.8156 166.185 40.7461 167.796 40.6069C168.683 40.5512 169.322 40.5235 169.712 40.5235C172.321 40.5235 174.375 41.0103 175.874 41.9843C177.373 42.9582 178.123 44.4607 178.123 46.4918C178.123 48.9126 177.109 50.7212 175.083 51.9176C173.084 53.114 170.557 53.7123 167.505 53.7123C164.561 53.7123 162.104 53.2115 160.134 52.2098C158.163 51.2359 157.177 49.6221 157.177 47.3683C157.177 46.7005 157.274 45.991 157.469 45.2397L163.216 46.0745C162.883 46.9927 162.716 47.7857 162.716 48.4535C162.716 50.5125 164.298 51.542 167.463 51.542C169.1 51.542 170.322 51.1803 171.127 50.4568C171.96 49.7333 172.377 48.6899 172.377 47.3266C172.377 46.2971 172.14 45.5319 171.669 45.031C171.223 44.5302 170.572 44.2103 169.712 44.0711C168.879 43.9319 167.74 43.8764 166.297 43.9042C165.797 43.9319 165.102 43.9459 164.215 43.9459C162.133 43.9459 160.619 43.7372 159.676 43.3198C158.759 42.9025 158.301 42.1372 158.301 41.0243C158.301 40.2453 158.579 39.5357 159.134 38.8957C159.689 38.2279 160.426 37.7131 161.342 37.3515C160.176 36.7114 159.273 35.8629 158.635 34.8055C158.024 33.7204 157.718 32.51 157.718 31.1744C157.718 28.9206 158.551 27.112 160.217 25.7486C161.883 24.3573 164.215 23.6618 167.213 23.6618C170.045 23.6618 172.279 24.2878 173.917 25.5399C174.334 24.9556 174.875 24.4965 175.541 24.1626C176.208 23.8287 176.943 23.6618 177.748 23.6618C178.914 23.6618 179.76 23.94 180.288 24.4965C180.815 25.0531 181.079 25.7764 181.079 26.6668C181.079 26.8895 181.051 27.1954 180.996 27.585L177.415 28.4198ZM167.588 36.475C168.781 36.475 169.67 36.1271 170.253 35.4316C170.863 34.736 171.169 33.8038 171.169 32.6352C171.169 31.9117 171.071 31.2022 170.878 30.5066C170.128 27.4459 168.767 25.9156 166.797 25.9156C165.631 25.9156 164.742 26.2634 164.132 26.959C163.549 27.6546 163.257 28.5728 163.257 29.7136C163.257 30.4371 163.353 31.1466 163.549 31.8422C164.242 34.9307 165.589 36.475 167.588 36.475ZM201.533 39.7722C201.533 41.3025 201.881 42.0677 202.574 42.0677C202.853 42.0677 203.199 41.9425 203.615 41.6921V43.2781C203.282 43.8067 202.755 44.2241 202.033 44.5302C201.339 44.8084 200.575 44.9476 199.742 44.9476C198.743 44.9476 197.856 44.7529 197.077 44.3633C196.328 43.9459 195.899 43.2086 195.787 42.1512V41.859H195.37C194.704 42.8885 193.719 43.7372 192.414 44.405C191.11 45.045 189.569 45.3649 187.792 45.3649C183.323 45.3649 181.087 43.626 181.087 40.1478C181.087 37.4767 182.49 35.5707 185.293 34.4299C188.097 33.289 191.581 32.4822 195.745 32.0092C195.691 30.4789 195.537 29.2823 195.287 28.4198C195.037 27.5573 194.608 26.9173 193.996 26.4999C193.386 26.0547 192.539 25.8321 191.456 25.8321C190.18 25.8321 189.195 26.0965 188.499 26.6251C187.833 27.1259 187.5 27.8632 187.5 28.8372C187.5 29.4215 187.654 30.131 187.958 30.9657L182.462 32.0509C182.295 31.4109 182.212 30.7988 182.212 30.2145C182.212 28.9624 182.587 27.8494 183.336 26.8755C184.086 25.8738 185.197 25.0948 186.667 24.5383C188.166 23.9539 189.957 23.6618 192.039 23.6618C194.344 23.6618 196.176 24.0096 197.535 24.7052C198.924 25.373 199.938 26.4581 200.575 27.9607C201.214 29.4354 201.533 31.4248 201.533 33.929V39.7722ZM195.787 36.4333V34.1377C193.15 34.4159 190.998 35.042 189.332 36.0159C187.667 36.9898 186.834 38.2836 186.834 39.8974C186.834 41.0103 187.071 41.8451 187.542 42.4016C188.041 42.9302 188.791 43.1946 189.79 43.1946C190.929 43.1946 191.956 42.8747 192.872 42.2347C193.788 41.5947 194.496 40.7879 194.995 39.8139C195.524 38.84 195.787 37.8801 195.787 36.9341V36.4333Z" fill="#19191B"/>
</svg>
