<svg width="61" height="24" viewBox="0 0 61 24" fill="none" xmlns="http://www.w3.org/2000/svg">
<g id="AOL_logo 1" style="mix-blend-mode:multiply" opacity="0.4" clip-path="url(#clip0_231_4310)">
<g id="g4157">
<path id="path8" d="M33.5862 5.16333C28.1076 5.16333 23.9629 9.35672 23.9629 14.5515C23.9629 20.028 28.2823 23.9397 33.5862 23.9397C38.8901 23.9397 43.1936 20.028 43.1936 14.5515C43.1936 9.35672 39.0648 5.16333 33.5862 5.16333ZM33.5862 10.1234C35.9523 10.1078 37.8897 12.0949 37.8897 14.5515C37.8897 16.9924 35.9523 18.9796 33.5862 18.9796C31.2201 18.9796 29.2827 16.9924 29.2827 14.5515C29.2827 12.0949 31.2201 10.1234 33.5862 10.1234Z" fill="#19191B"/>
<path id="path10" d="M61.0002 20.6533C61.0002 22.4683 59.5075 23.9392 57.6654 23.9392C55.8233 23.9392 54.3306 22.4683 54.3306 20.6533C54.3306 18.8382 55.8233 17.3674 57.6654 17.3674C59.5075 17.3674 61.0002 18.8382 61.0002 20.6533Z" fill="#19191B"/>
<path id="path12" d="M51.2927 23.314H46.0522V0H51.2927V23.314Z" fill="#19191B"/>
<path id="path14" fill-rule="evenodd" clip-rule="evenodd" d="M0 23.3142L9.52802 0.000244141H14.4508L23.8201 23.3142H17.1504L16.0388 20.0284H7.78122L6.66961 23.3142H0ZM14.4508 15.1778H9.52802L11.9894 7.35432L14.4508 15.1778Z" fill="#19191B"/>
</g>
</g>
<defs>
<clipPath id="clip0_231_4310">
<rect width="61" height="24" fill="white"/>
</clipPath>
</defs>
</svg>
