<svg width="48" height="49" viewBox="0 0 48 49" fill="none" xmlns="http://www.w3.org/2000/svg">
<path d="M35.3684 0H12.6316C5.65535 0 0 5.66842 0 12.6608V35.4501C0 42.4425 5.65535 48.1109 12.6316 48.1109H35.3684C42.3446 48.1109 48 42.4425 48 35.4501V12.6608C48 5.66842 42.3446 0 35.3684 0Z" fill="#FEE34E"/>
<path d="M24.5604 11.8064C22.9382 10.1804 20.3081 10.1804 18.6858 11.8064C17.0636 13.4324 17.0636 16.0686 18.6858 17.6946L25.2948 24.3188C26.917 25.9448 29.5472 25.9448 31.1694 24.3188C32.7916 22.6928 32.7916 20.0566 31.1694 18.4306L24.5604 11.8064Z" fill="#19191B"/>
<path d="M21.4433 23.031C19.821 21.405 17.1909 21.405 15.5686 23.031C13.9464 24.657 13.9464 27.2932 15.5686 28.9192L22.1776 35.5434C23.7998 37.1694 26.43 37.1694 28.0522 35.5434C29.6744 33.9174 29.6744 31.2812 28.0522 29.6552L21.4433 23.031Z" fill="#19191B"/>
</svg>
