<svg width="20" height="20" viewBox="0 0 20 20" fill="none" xmlns="http://www.w3.org/2000/svg">
<g clip-path="url(#clip0_231_5728)">
<path fill-rule="evenodd" clip-rule="evenodd" d="M19.0834 5.83317C19.0834 3.11983 16.8801 0.916504 14.1667 0.916504H5.83342C3.12008 0.916504 0.916748 3.11983 0.916748 5.83317V14.1665C0.916748 16.8798 3.12008 19.0832 5.83342 19.0832H14.1667C16.8801 19.0832 19.0834 16.8798 19.0834 14.1665V5.83317ZM17.5834 5.83317V14.1665C17.5834 16.0523 16.0526 17.5832 14.1667 17.5832H5.83342C3.94758 17.5832 2.41675 16.0523 2.41675 14.1665V5.83317C2.41675 3.94733 3.94758 2.41649 5.83342 2.41649H14.1667C16.0526 2.41649 17.5834 3.94733 17.5834 5.83317ZM14.0751 9.36484C13.8126 7.59067 12.4092 6.18733 10.6351 5.92483C10.4367 5.89483 10.2367 5.88067 10.0359 5.88067C7.79591 5.88067 5.95258 7.724 5.95258 9.964C5.95258 12.204 7.79591 14.0473 10.0359 14.0473C12.2759 14.0473 14.1192 12.204 14.1192 9.964C14.1192 9.76317 14.1051 9.56317 14.0751 9.36484ZM12.5917 9.58483C12.6101 9.71066 12.6192 9.83733 12.6192 9.964C12.6192 11.3807 11.4534 12.5473 10.0359 12.5473C8.61925 12.5473 7.45258 11.3807 7.45258 9.964C7.45258 8.5465 8.61925 7.38066 10.0359 7.38066C10.1626 7.38066 10.2892 7.38983 10.4151 7.40816C11.5376 7.57483 12.4251 8.46233 12.5917 9.58483ZM14.5834 4.6665C14.9976 4.6665 15.3334 5.00233 15.3334 5.4165C15.3334 5.83067 14.9976 6.16649 14.5834 6.16649C14.1692 6.16649 13.8334 5.83067 13.8334 5.4165C13.8334 5.00233 14.1692 4.6665 14.5834 4.6665Z" fill="#19191B"/>
</g>
<defs>
<clipPath id="clip0_231_5728">
<rect width="20" height="20" fill="white"/>
</clipPath>
</defs>
</svg>
