<svg width="171" height="171" viewBox="0 0 171 171" fill="none" xmlns="http://www.w3.org/2000/svg">
<circle opacity="0.1" cx="85.5" cy="85.5" r="85.5" fill="#FF8C68"/>
<circle opacity="0.2" cx="86.5" cy="85.5" r="54.5" fill="#FF8C68"/>
<circle cx="86" cy="85" r="36" fill="#FF8C68"/>
<path d="M93.1104 70H78.8966C74.5354 70 71 73.5436 71 77.9148V92.1614C71 96.5327 74.5354 100.076 78.8966 100.076H93.1104C97.4715 100.076 101.007 96.5327 101.007 92.1614V77.9148C101.007 73.5436 97.4715 70 93.1104 70Z" fill="#19191B"/>
<path d="M86.3525 77.381C85.3383 76.3645 83.6941 76.3645 82.68 77.381C81.6659 78.3974 81.6659 80.0454 82.68 81.0619L86.8115 85.203C87.8257 86.2195 89.4699 86.2195 90.484 85.203C91.4981 84.1865 91.4981 82.5385 90.484 81.522L86.3525 77.381Z" fill="white"/>
<path d="M84.4052 84.3978C83.3911 83.3813 81.7468 83.3813 80.7327 84.3978C79.7186 85.4143 79.7186 87.0623 80.7327 88.0788L84.8643 92.2199C85.8784 93.2363 87.5226 93.2363 88.5367 92.2199C89.5509 91.2034 89.5509 89.5554 88.5367 88.5389L84.4052 84.3978Z" fill="white"/>
</svg>
