<svg width="178" height="178" viewBox="0 0 178 178" fill="none" xmlns="http://www.w3.org/2000/svg">
<path d="M26.0665 89.0014C26.0666 101.448 29.7575 113.616 36.6728 123.965C43.588 134.315 53.4168 142.381 64.9164 147.144C76.416 151.908 89.0698 153.154 101.278 150.726C113.486 148.297 124.699 142.303 133.501 133.502C142.302 124.701 148.296 113.487 150.724 101.279C153.153 89.0711 151.906 76.4173 147.143 64.9177C142.38 53.4182 134.313 43.5893 123.964 36.6741C113.615 29.7589 101.447 26.0679 89 26.0679L89 89.0013L26.0665 89.0014Z" fill="white"/>
<path d="M44.4523 44.4523C35.6416 53.263 29.6414 64.4885 27.2105 76.7093C24.7797 88.9301 26.0273 101.597 30.7956 113.109C35.5639 124.621 43.6388 134.46 53.9991 141.383C64.3594 148.305 76.5398 152 89 152C101.46 152 113.641 148.305 124.001 141.383C134.361 134.46 142.436 124.621 147.204 113.109C151.973 101.597 153.22 88.9301 150.789 76.7093C148.359 64.4885 142.358 53.263 133.548 44.4523L89 89L44.4523 44.4523Z" fill="#FEE34E"/>
<path d="M89 26C76.5398 26 64.3594 29.6949 53.9991 36.6174C43.6388 43.5399 35.5639 53.3792 30.7956 64.8909C26.0273 76.4027 24.7797 89.0699 27.2105 101.291C29.6414 113.511 35.6416 124.737 44.4523 133.548C53.263 142.358 64.4885 148.359 76.7093 150.789C88.9301 153.22 101.597 151.973 113.109 147.204C124.621 142.436 134.46 134.361 141.383 124.001C148.305 113.641 152 101.46 152 89L89 89L89 26Z" fill="#FF8C68"/>
</svg>
