<svg width="148" height="116" viewBox="0 0 148 116" fill="none" xmlns="http://www.w3.org/2000/svg">
<rect x="8.5" y="6.5" width="131" height="100" rx="19.5" stroke="white" stroke-dasharray="6 10"/>
<path d="M24.4 81L33.76 53H40.96L50.24 81H45.16L37.4 56.6H37.28L29.4 81H24.4ZM28.96 73.16L30.24 69.4H44.04L45.32 73.16H28.96ZM57.8994 81.48C56.2994 81.48 54.9794 81.2133 53.9394 80.68C52.8994 80.12 52.126 79.3867 51.6194 78.48C51.1127 77.5467 50.8594 76.5333 50.8594 75.44C50.8594 74.1867 51.1794 73.1067 51.8194 72.2C52.486 71.2667 53.4594 70.5467 54.7394 70.04C56.0194 69.5067 57.606 69.24 59.4994 69.24H64.5794C64.5794 68.1733 64.4194 67.2933 64.0994 66.6C63.806 65.88 63.3394 65.36 62.6994 65.04C62.086 64.6933 61.3127 64.52 60.3794 64.52C59.286 64.52 58.326 64.7867 57.4994 65.32C56.6994 65.8267 56.2194 66.6133 56.0594 67.68H51.3394C51.4727 66.24 51.9394 65 52.7394 63.96C53.566 62.92 54.6327 62.12 55.9394 61.56C57.2727 60.9733 58.766 60.68 60.4194 60.68C62.3127 60.68 63.926 61.0133 65.2594 61.68C66.6194 62.32 67.646 63.24 68.3394 64.44C69.0327 65.64 69.3794 67.0933 69.3794 68.8V81H65.3794L64.8994 77.8H64.7794C64.406 78.4133 63.9794 78.9467 63.4994 79.4C63.0194 79.8533 62.4994 80.24 61.9394 80.56C61.3794 80.8533 60.7527 81.08 60.0594 81.24C59.3927 81.4 58.6727 81.48 57.8994 81.48ZM59.2594 77.68C60.0594 77.68 60.766 77.5467 61.3794 77.28C62.0194 76.9867 62.5527 76.5867 62.9794 76.08C63.406 75.5733 63.7394 75 63.9794 74.36C64.246 73.72 64.406 73.0533 64.4594 72.36V72.32H60.0194C59.0594 72.32 58.2727 72.44 57.6594 72.68C57.046 72.92 56.5927 73.2533 56.2994 73.68C56.0327 74.08 55.8994 74.5467 55.8994 75.08C55.8994 75.64 56.0327 76.12 56.2994 76.52C56.5927 76.8933 56.9927 77.1867 57.4994 77.4C58.006 77.5867 58.5927 77.68 59.2594 77.68Z" fill="white"/>
<rect x="1.5" y="1.5" width="15" height="15" fill="#19191B" stroke="#FF8C68" stroke-width="3"/>
<rect x="131.5" y="1.5" width="15" height="15" fill="#19191B" stroke="#FF8C68" stroke-width="3"/>
<rect x="1.5" y="99.5" width="15" height="15" fill="#19191B" stroke="#FF8C68" stroke-width="3"/>
<rect x="131.5" y="99.5" width="15" height="15" fill="#19191B" stroke="#FF8C68" stroke-width="3"/>
<rect x="78" y="39" width="2" height="54" fill="#FF8C68"/>
</svg>
