<svg width="48" height="48" viewBox="0 0 48 48" fill="none" xmlns="http://www.w3.org/2000/svg">
<g clip-path="url(#clip0_231_1202)">
<path d="M24 0.147949C10.766 0.147949 0 10.7403 0 23.7609C0 36.7814 10.766 47.3738 24 47.3738C37.234 47.3738 48 36.7814 48 23.7609C48 10.7403 37.234 0.147949 24 0.147949ZM39.758 18.0957C38.632 19.2036 37.106 19.8254 35.516 19.8254H31.002L32.988 21.7793C33.638 22.4189 34.002 23.2847 34.002 24.1879V26.7518C34.002 27.3697 33.832 27.9758 33.508 28.5051L28.518 36.6889C28.198 37.2143 27.622 37.535 27 37.535H25.386C24.574 37.535 23.866 36.992 23.668 36.2147L22.282 30.7562C22.118 30.1127 21.532 29.6621 20.858 29.6621H18.004C15.794 29.6621 14.004 27.901 14.004 25.7266V23.6703C14.004 22.4956 14.6 21.3996 15.594 20.7482L19.106 18.446C19.692 18.0623 20.382 17.8557 21.086 17.8557H26.352C27.266 17.8557 28.006 17.1276 28.006 16.2283V14.5931C28.006 14.1622 27.832 13.747 27.522 13.442L25.92 11.8659C25.384 11.3385 24.55 11.2362 23.9 11.6219L20.808 13.4479C20.284 13.7569 19.686 13.9202 19.074 13.9202H17.622C16.73 13.9202 16.006 13.2079 16.006 12.3302V10.7049C16.006 10.2464 15.804 9.81153 15.454 9.5085L12.964 7.36563C16.13 5.29359 19.926 4.0795 24.004 4.0795C32.102 4.0795 39.076 8.8493 42.218 15.6754L39.76 18.0938L39.758 18.0957Z" fill="white"/>
</g>
<defs>
<clipPath id="clip0_231_1202">
<rect width="48" height="47.2258" fill="white" transform="translate(0 0.147949)"/>
</clipPath>
</defs>
</svg>
