<svg width="106" height="32" viewBox="0 0 106 32" fill="none" xmlns="http://www.w3.org/2000/svg">
<g clip-path="url(#clip0_231_2201)">
<path d="M23.1875 0H8.28125C3.70764 0 0 3.77023 0 8.42105V23.5789C0 28.2298 3.70764 32 8.28125 32H23.1875C27.7611 32 31.4688 28.2298 31.4688 23.5789V8.42105C31.4688 3.77023 27.7611 0 23.1875 0Z" fill="#FFD805"/>
<path d="M16.0993 7.85283C15.0358 6.77135 13.3115 6.77135 12.248 7.85283C11.1844 8.93432 11.1844 10.6878 12.248 11.7692L16.5808 16.1752C17.6443 17.2567 19.3686 17.2567 20.4322 16.1752C21.4957 15.0937 21.4957 13.3403 20.4322 12.2588L16.0993 7.85283Z" fill="#19191B"/>
<path d="M14.0583 15.3187C12.9948 14.2372 11.2705 14.2372 10.2069 15.3187C9.14341 16.4001 9.14341 18.1536 10.2069 19.2351L14.5398 23.641C15.6033 24.7225 17.3276 24.7225 18.3911 23.641C19.4547 22.5595 19.4547 20.8061 18.3911 19.7246L14.0583 15.3187Z" fill="#19191B"/>
<path d="M62.0333 9.82925C61.6457 9.82925 61.3658 9.97518 61.1935 10.2671C61.0356 10.5591 60.9567 11.0554 60.9567 11.756V20.9518C60.9567 21.6524 61.0356 22.1487 61.1935 22.4406C61.3658 22.7326 61.6457 22.8785 62.0333 22.8785V23.5791H56.9088V22.8785C57.2964 22.8785 57.5691 22.7326 57.727 22.4406C57.8993 22.1487 57.9854 21.6524 57.9854 20.9518V11.9749L52.9901 23.5791H49.7389L44.593 11.9749V20.9518C44.593 21.6524 44.6719 22.1487 44.8298 22.4406C45.002 22.7326 45.282 22.8785 45.6695 22.8785V23.5791H42.2676V22.8785C42.6551 22.8785 42.9278 22.7326 43.0858 22.4406C43.258 22.1487 43.3441 21.6524 43.3441 20.9518V11.756C43.3441 11.0554 43.258 10.5591 43.0858 10.2671C42.9278 9.97518 42.6551 9.82925 42.2676 9.82925V9.12862H43.6886C44.5068 9.12862 45.124 9.17241 45.5403 9.25998C45.9566 9.33299 46.3227 9.52272 46.6384 9.82925C46.9542 10.1358 47.2628 10.632 47.5643 11.3181L52.3657 22.2217L57.038 11.3181C57.3107 10.6758 57.6266 10.2015 57.9854 9.89493C58.3442 9.57384 58.7175 9.36946 59.105 9.28188C59.5069 9.1943 60.0093 9.14318 60.6122 9.12862H62.0333V9.82925ZM65.62 11.5808C65.132 11.5808 64.7445 11.4568 64.4574 11.2086C64.1847 10.9604 64.0483 10.632 64.0483 10.2234C64.0483 9.84382 64.1919 9.53005 64.4789 9.28188C64.766 9.03371 65.1464 8.90967 65.62 8.90967C66.0937 8.90967 66.4742 9.04104 66.7612 9.30377C67.0483 9.55194 67.1918 9.85847 67.1918 10.2234C67.1918 10.6175 67.0483 10.9459 66.7612 11.2086C66.4742 11.4568 66.0937 11.5808 65.62 11.5808ZM67.321 20.9518C67.321 21.6524 67.4 22.1487 67.5579 22.4406C67.7301 22.7326 68.01 22.8785 68.3976 22.8785V23.5791H63.2731V22.8785C63.6607 22.8785 63.9335 22.7326 64.0913 22.4406C64.2636 22.1487 64.3497 21.6524 64.3497 20.9518V15.2591C64.3497 14.5585 64.2636 14.0623 64.0913 13.7703C63.9335 13.4783 63.6607 13.3324 63.2731 13.3324V12.6318H64.6942C65.3689 12.6318 65.8784 12.6682 66.2229 12.7412C66.5818 12.8143 66.8545 12.9894 67.0411 13.2667C67.2278 13.5295 67.321 13.9528 67.321 14.5366V20.9518ZM77.8732 12.4128C79.5957 12.4128 80.457 13.2959 80.457 15.0621C80.457 15.7189 80.3349 16.5217 80.091 17.4705L77.1196 17.0326C77.5646 16.0255 77.7871 15.2154 77.7871 14.6023C77.7871 13.9017 77.4641 13.5514 76.8182 13.5514C76.2153 13.5514 75.6626 13.8506 75.1603 14.449C74.6579 15.0329 74.256 15.7919 73.9545 16.7261C73.6674 17.6602 73.5239 18.6309 73.5239 19.6381V20.9518C73.5239 21.6524 73.6028 22.1487 73.7608 22.4406C73.933 22.7326 74.2129 22.8785 74.6005 22.8785V23.5791H69.476V22.8785C69.8636 22.8785 70.1363 22.7326 70.2942 22.4406C70.4665 22.1487 70.5526 21.6524 70.5526 20.9518V15.2591C70.5526 14.5585 70.4665 14.0623 70.2942 13.7703C70.1363 13.4783 69.8636 13.3324 69.476 13.3324V12.6318H70.8971C71.543 12.6318 72.0454 12.6682 72.4043 12.7412C72.7631 12.8143 73.0358 12.9821 73.2225 13.2448C73.4234 13.5076 73.5239 13.909 73.5239 14.449V15.7846H73.7392C73.9976 14.9234 74.4784 14.1498 75.1818 13.4638C75.8995 12.7631 76.7967 12.4128 77.8732 12.4128ZM91.7365 14.9088C91.8226 14.6461 91.8656 14.4345 91.8656 14.2739C91.8656 14.0695 91.8151 13.9236 91.7149 13.836C91.6139 13.7338 91.4922 13.6827 91.3489 13.6827C91.0326 13.6827 90.7816 13.7922 90.5953 14.0111C91.1121 14.6388 91.3704 15.4197 91.3704 16.3539C91.3704 17.5362 90.9398 18.4922 90.0786 19.2221C89.2173 19.9373 88.0116 20.2949 86.4613 20.2949C85.7143 20.2949 85.0187 20.2 84.3728 20.0103C83.9852 20.3023 83.7914 20.5796 83.7914 20.8423C83.7914 21.0467 83.8776 21.1926 84.0498 21.2802C84.2221 21.3678 84.5301 21.4116 84.9756 21.4116C85.3342 21.4116 85.9296 21.3751 86.7627 21.3021C87.2215 21.2729 87.5519 21.2583 87.7532 21.2583C89.1022 21.2583 90.1647 21.5137 90.9398 22.0246C91.7149 22.5355 92.1025 23.3237 92.1025 24.3892C92.1025 25.6591 91.5783 26.6079 90.5307 27.2356C89.4972 27.8632 88.1904 28.177 86.612 28.177C85.0899 28.177 83.8196 27.9143 82.8007 27.3888C81.7815 26.8779 81.2719 26.0314 81.2719 24.849C81.2719 24.4987 81.3222 24.1265 81.4227 23.7324L84.3943 24.1703C84.2221 24.652 84.1359 25.068 84.1359 25.4183C84.1359 26.4985 84.9541 27.0385 86.5905 27.0385C87.4368 27.0385 88.0687 26.8488 88.4852 26.4692C88.9159 26.0897 89.1312 25.5423 89.1312 24.8271C89.1312 24.2871 89.0086 23.8857 88.7651 23.6229C88.5349 23.3602 88.1979 23.1924 87.7532 23.1194C87.3226 23.0463 86.7338 23.0172 85.9876 23.0318C85.7292 23.0463 85.3698 23.0537 84.911 23.0537C83.8345 23.0537 83.0519 22.9442 82.5638 22.7252C82.0901 22.5063 81.8533 22.1049 81.8533 21.521C81.8533 21.1124 81.9968 20.7402 82.2839 20.4044C82.571 20.0541 82.9517 19.784 83.4254 19.5943C82.8225 19.2586 82.3557 18.8134 82.0255 18.2587C81.7098 17.6895 81.5518 17.0545 81.5518 16.3539C81.5518 15.1716 81.9825 14.2228 82.8441 13.5076C83.7053 12.7777 84.9111 12.4128 86.4613 12.4128C87.9254 12.4128 89.0807 12.7412 89.9278 13.3981C90.1432 13.0916 90.4231 12.8507 90.7676 12.6756C91.1121 12.5004 91.4922 12.4128 91.9087 12.4128C92.5116 12.4128 92.9488 12.5588 93.2221 12.8507C93.4946 13.1427 93.6312 13.5221 93.6312 13.9892C93.6312 14.106 93.6163 14.2666 93.5881 14.4709L91.7365 14.9088ZM86.6551 19.1345C87.272 19.1345 87.7316 18.952 88.0331 18.5871C88.3486 18.2223 88.5068 17.7332 88.5068 17.1202C88.5068 16.7407 88.4563 16.3684 88.3561 16.0036C87.9685 14.3979 87.2646 13.5951 86.246 13.5951C85.6431 13.5951 85.1835 13.7776 84.868 14.1425C84.5666 14.5074 84.4158 14.9891 84.4158 15.5876C84.4158 15.9671 84.4655 16.3393 84.5665 16.7042C84.9251 18.3244 85.6216 19.1345 86.6551 19.1345ZM104.207 20.8642C104.207 21.667 104.387 22.0684 104.745 22.0684C104.89 22.0684 105.068 22.0027 105.284 21.8714V22.7034C105.112 22.9807 104.839 23.1996 104.466 23.3602C104.107 23.5061 103.712 23.5791 103.281 23.5791C102.765 23.5791 102.306 23.477 101.903 23.2726C101.516 23.0537 101.294 22.6669 101.236 22.1122V21.9589H101.021C100.676 22.499 100.167 22.9442 99.4919 23.2945C98.8178 23.6303 98.0211 23.7981 97.1019 23.7981C94.7914 23.7981 93.6353 22.8858 93.6353 21.0612C93.6353 19.66 94.3608 18.6602 95.81 18.0617C97.2601 17.4632 99.0612 17.0399 101.214 16.7918C101.186 15.989 101.107 15.3613 100.978 14.9088C100.848 14.4564 100.626 14.1206 100.31 13.9017C99.9945 13.6682 99.5564 13.5514 98.9966 13.5514C98.3366 13.5514 97.8273 13.69 97.4679 13.9674C97.1234 14.2301 96.9512 14.6169 96.9512 15.1278C96.9512 15.4343 97.0307 15.8065 97.188 16.2444L94.3459 16.8137C94.2598 16.4779 94.2167 16.1568 94.2167 15.8503C94.2167 15.1935 94.4105 14.6096 94.798 14.0987C95.1856 13.5732 95.7603 13.1646 96.5205 12.8726C97.2957 12.5661 98.2215 12.4128 99.2981 12.4128C100.49 12.4128 101.437 12.5953 102.14 12.9602C102.858 13.3105 103.382 13.8798 103.712 14.668C104.042 15.4416 104.207 16.4852 104.207 17.7989V20.8642ZM101.236 19.1126V17.9084C99.8728 18.0543 98.7598 18.3828 97.8985 18.8937C97.0373 19.4046 96.6067 20.0833 96.6067 20.9299C96.6067 21.5137 96.7292 21.9516 96.9727 22.2436C97.2311 22.5209 97.6186 22.6596 98.1354 22.6596C98.7242 22.6596 99.255 22.4917 99.7287 22.156C100.202 21.8202 100.568 21.397 100.827 20.8861C101.1 20.3752 101.236 19.8716 101.236 19.3754V19.1126Z" fill="#19191B"/>
</g>
<defs>
<clipPath id="clip0_231_2201">
<rect width="106" height="32" fill="white"/>
</clipPath>
</defs>
</svg>
