<svg width="190" height="56" viewBox="0 0 190 56" fill="none" xmlns="http://www.w3.org/2000/svg">
<path d="M41.5625 0H14.8438C6.64577 0 0 6.59791 0 14.7368V41.2632C0 49.4021 6.64577 56 14.8438 56H41.5625C49.7605 56 56.4062 49.4021 56.4062 41.2632V14.7368C56.4062 6.59791 49.7605 0 41.5625 0Z" fill="#FFD805"/>
<path d="M28.8571 13.7426C26.9508 11.85 23.86 11.85 21.9537 13.7426C20.0473 15.6352 20.0473 18.7037 21.9537 20.5963L29.72 28.3067C31.6264 30.1993 34.7171 30.1993 36.6235 28.3067C38.5298 26.4141 38.5298 23.3456 36.6235 21.453L28.8571 13.7426Z" fill="#19191B"/>
<path d="M25.1989 26.808C23.2926 24.9154 20.2018 24.9154 18.2955 26.808C16.3891 28.7006 16.3891 31.7691 18.2955 33.6617L26.0618 41.3722C27.9682 43.2647 31.0589 43.2647 32.9653 41.3722C34.8716 39.4796 34.8716 36.411 32.9653 34.5184L25.1989 26.808Z" fill="#19191B"/>
<path d="M111.191 17.2011C110.496 17.2011 109.994 17.4564 109.686 17.9674C109.403 18.4783 109.261 19.3467 109.261 20.5728V36.6655C109.261 37.8916 109.403 38.76 109.686 39.271C109.994 39.7819 110.496 40.0373 111.191 40.0373V41.2634H102.005V40.0373C102.7 40.0373 103.189 39.7819 103.472 39.271C103.781 38.76 103.935 37.8916 103.935 36.6655V20.956L94.9814 41.2634H89.1537L79.9298 20.956V36.6655C79.9298 37.8916 80.0713 38.76 80.3544 39.271C80.6631 39.7819 81.1648 40.0373 81.8595 40.0373V41.2634H75.7617V40.0373C76.4564 40.0373 76.9452 39.7819 77.2283 39.271C77.537 38.76 77.6914 37.8916 77.6914 36.6655V20.5728C77.6914 19.3467 77.537 18.4783 77.2283 17.9674C76.9452 17.4564 76.4564 17.2011 75.7617 17.2011V15.975H78.3089C79.7755 15.975 80.8818 16.0516 81.628 16.2049C82.3742 16.3326 83.0303 16.6646 83.5962 17.2011C84.1622 17.7375 84.7155 18.6059 85.2558 19.8065L93.8622 38.8878L102.237 19.8065C102.726 18.6826 103.292 17.8524 103.935 17.316C104.578 16.7541 105.247 16.3964 105.942 16.2432C106.662 16.0899 107.563 16.0004 108.644 15.975H111.191V17.2011ZM117.62 20.2663C116.745 20.2663 116.05 20.0492 115.536 19.615C115.047 19.1807 114.803 18.6059 114.803 17.8907C114.803 17.2266 115.06 16.6775 115.574 16.2432C116.089 15.8089 116.771 15.5918 117.62 15.5918C118.469 15.5918 119.151 15.8217 119.665 16.2815C120.18 16.7158 120.437 17.2522 120.437 17.8907C120.437 18.5804 120.18 19.1552 119.665 19.615C119.151 20.0492 118.469 20.2663 117.62 20.2663ZM120.669 36.6655C120.669 37.8916 120.81 38.76 121.093 39.271C121.402 39.7819 121.904 40.0373 122.598 40.0373V41.2634H113.413V40.0373C114.108 40.0373 114.597 39.7819 114.88 39.271C115.189 38.76 115.343 37.8916 115.343 36.6655V26.7034C115.343 25.4773 115.189 24.6088 114.88 24.0979C114.597 23.587 114.108 23.3316 113.413 23.3316V22.1055H115.96C117.17 22.1055 118.083 22.1693 118.701 22.2971C119.344 22.4248 119.833 22.7314 120.167 23.2166C120.502 23.6764 120.669 24.4172 120.669 25.439V36.6655ZM139.583 21.7223C142.671 21.7223 144.214 23.2678 144.214 26.3585C144.214 27.508 143.996 28.9129 143.558 30.5733L138.232 29.807C139.03 28.0444 139.429 26.6267 139.429 25.5539C139.429 24.3278 138.85 23.7147 137.692 23.7147C136.611 23.7147 135.621 24.2383 134.72 25.2857C133.82 26.3074 133.099 27.6358 132.559 29.2705C132.044 30.9053 131.787 32.604 131.787 34.3665V36.6655C131.787 37.8916 131.929 38.76 132.212 39.271C132.521 39.7819 133.022 40.0373 133.717 40.0373V41.2634H124.532V40.0373C125.226 40.0373 125.715 39.7819 125.998 39.271C126.307 38.76 126.461 37.8916 126.461 36.6655V26.7034C126.461 25.4773 126.307 24.6088 125.998 24.0979C125.715 23.587 125.226 23.3316 124.532 23.3316V22.1055H127.079C128.237 22.1055 129.137 22.1693 129.78 22.2971C130.424 22.4248 130.912 22.7185 131.247 23.1783C131.607 23.6381 131.787 24.3406 131.787 25.2857V27.623H132.173C132.636 26.1158 133.498 24.7621 134.759 23.5615C136.045 22.3354 137.653 21.7223 139.583 21.7223ZM164.432 26.0903C164.587 25.6305 164.664 25.2602 164.664 24.9792C164.664 24.6215 164.573 24.3661 164.394 24.2128C164.213 24.0341 163.994 23.9446 163.738 23.9446C163.171 23.9446 162.721 24.1362 162.387 24.5194C163.313 25.6177 163.776 26.9844 163.776 28.6192C163.776 30.6882 163.004 32.3613 161.461 33.6385C159.917 34.8901 157.756 35.516 154.977 35.516C153.638 35.516 152.391 35.3499 151.233 35.0179C150.539 35.5288 150.191 36.0141 150.191 36.4739C150.191 36.8316 150.346 37.087 150.654 37.2402C150.963 37.3935 151.515 37.4701 152.314 37.4701C152.957 37.4701 154.024 37.4063 155.517 37.2785C156.34 37.2274 156.932 37.2019 157.293 37.2019C159.711 37.2019 161.615 37.6489 163.004 38.543C164.394 39.437 165.088 40.8164 165.088 42.6811C165.088 44.9034 164.149 46.5638 162.271 47.6621C160.419 48.7604 158.076 49.3097 155.247 49.3097C152.519 49.3097 150.242 48.8499 148.415 47.9303C146.589 47.0362 145.675 45.5547 145.675 43.4857C145.675 42.8726 145.765 42.2213 145.945 41.5316L151.272 42.2979C150.963 43.1408 150.809 43.8688 150.809 44.4819C150.809 46.3722 152.275 47.3173 155.208 47.3173C156.725 47.3173 157.858 46.9852 158.605 46.3211C159.377 45.6569 159.762 44.699 159.762 43.4474C159.762 42.5023 159.543 41.7998 159.106 41.34C158.694 40.8802 158.09 40.5865 157.293 40.4587C156.521 40.331 155.465 40.28 154.128 40.3055C153.665 40.331 153.02 40.3438 152.198 40.3438C150.268 40.3438 148.866 40.1522 147.991 39.7691C147.142 39.3859 146.717 38.6834 146.717 37.6617C146.717 36.9465 146.974 36.2951 147.489 35.7076C148.004 35.0945 148.686 34.6219 149.535 34.2899C148.455 33.7023 147.618 32.9234 147.026 31.9526C146.46 30.9564 146.177 29.8453 146.177 28.6192C146.177 26.5501 146.949 24.8897 148.493 23.6381C150.037 22.3609 152.198 21.7223 154.977 21.7223C157.601 21.7223 159.672 22.2971 161.19 23.4465C161.576 22.9101 162.078 22.4886 162.696 22.1821C163.313 21.8756 163.994 21.7223 164.741 21.7223C165.822 21.7223 166.605 21.9777 167.095 22.4886C167.584 22.9996 167.829 23.6636 167.829 24.4811C167.829 24.6855 167.802 24.9663 167.751 25.324L164.432 26.0903ZM155.324 33.4853C156.43 33.4853 157.254 33.1659 157.794 32.5274C158.36 31.8888 158.643 31.0331 158.643 29.9602C158.643 29.296 158.553 28.6447 158.373 28.0061C157.678 25.1962 156.417 23.7914 154.591 23.7914C153.51 23.7914 152.686 24.1107 152.121 24.7493C151.581 25.3878 151.31 26.2308 151.31 27.2781C151.31 27.9423 151.4 28.5937 151.581 29.2322C152.223 32.0676 153.472 33.4853 155.324 33.4853ZM186.786 36.5122C186.786 37.9171 187.108 38.6196 187.75 38.6196C188.009 38.6196 188.329 38.5046 188.715 38.2747V39.7307C188.406 40.216 187.918 40.5992 187.249 40.8802C186.606 41.1356 185.898 41.2634 185.126 41.2634C184.2 41.2634 183.377 41.0846 182.656 40.727C181.961 40.3438 181.564 39.6669 181.46 38.6962V38.428H181.074C180.456 39.3731 179.543 40.1522 178.334 40.7653C177.125 41.3528 175.697 41.6465 174.05 41.6465C169.908 41.6465 167.836 40.0501 167.836 36.8571C167.836 34.4048 169.136 32.6551 171.734 31.6078C174.333 30.5604 177.562 29.8198 181.421 29.3855C181.371 27.9806 181.228 26.8821 180.996 26.0903C180.765 25.2985 180.367 24.711 179.8 24.3278C179.235 23.9191 178.449 23.7147 177.446 23.7147C176.263 23.7147 175.35 23.9575 174.706 24.4427C174.088 24.9025 173.779 25.5794 173.779 26.4735C173.779 27.0099 173.922 27.6613 174.204 28.4276L169.11 29.4238C168.955 28.8362 168.878 28.2743 168.878 27.7379C168.878 26.5884 169.225 25.5667 169.92 24.6726C170.615 23.7531 171.645 23.0379 173.008 22.527C174.397 21.9905 176.056 21.7223 177.986 21.7223C180.122 21.7223 181.82 22.0417 183.081 22.6802C184.367 23.2933 185.307 24.2895 185.898 25.6688C186.49 27.0227 186.786 28.8491 186.786 31.148V36.5122ZM181.46 33.447V31.3396C179.016 31.595 177.021 32.1697 175.478 33.0638C173.934 33.9579 173.162 35.1457 173.162 36.6272C173.162 37.6489 173.382 38.4152 173.818 38.9261C174.281 39.4114 174.976 39.6541 175.902 39.6541C176.957 39.6541 177.909 39.3604 178.758 38.7728C179.607 38.1853 180.263 37.4446 180.726 36.5505C181.216 35.6564 181.46 34.7752 181.46 33.9067V33.447Z" fill="#19191B"/>
</svg>
