<svg width="70" height="28" viewBox="0 0 70 28" fill="none" xmlns="http://www.w3.org/2000/svg">
<g clip-path="url(#clip0_231_3123)">
<path d="M38.5417 6.02393C32.2547 6.02393 27.4985 10.9162 27.4985 16.9768C27.4985 23.366 32.4552 27.9297 38.5417 27.9297C44.6282 27.9297 49.5666 23.366 49.5666 16.9768C49.5666 10.9162 44.8286 6.02393 38.5417 6.02393ZM38.5417 11.8107C41.2569 11.7924 43.4801 14.1108 43.4801 16.9768C43.4801 19.8246 41.2569 22.1429 38.5417 22.1429C35.8264 22.1429 33.6032 19.8246 33.6032 16.9768C33.6032 14.1108 35.8264 11.8107 38.5417 11.8107Z" fill="#19191B"/>
<path d="M69.9999 24.0957C69.9999 26.2133 68.2869 27.9292 66.173 27.9292C64.0592 27.9292 62.3462 26.2133 62.3462 24.0957C62.3462 21.9782 64.0592 20.2622 66.173 20.2622C68.2869 20.2622 69.9999 21.9782 69.9999 24.0957Z" fill="#19191B"/>
<path d="M58.8603 27.1997H52.8467V0H58.8603V27.1997Z" fill="#19191B"/>
<path fill-rule="evenodd" clip-rule="evenodd" d="M0 27.2001L10.9338 0.000488281H16.5829L27.3345 27.2001H19.6808L18.4052 23.3666H8.92927L7.65366 27.2001H0ZM16.5829 17.7076H10.9338L13.7584 8.58024L16.5829 17.7076Z" fill="#19191B"/>
</g>
<defs>
<clipPath id="clip0_231_3123">
<rect width="70" height="28" fill="white"/>
</clipPath>
</defs>
</svg>
