<svg width="145" height="52" viewBox="0 0 145 52" fill="none" xmlns="http://www.w3.org/2000/svg">
<g id="cloud" style="mix-blend-mode:multiply" opacity="0.4">
<path id="Vector" d="M65.7597 36.4369C63.9811 36.4369 62.4538 36.1212 61.1782 35.4898C59.9027 34.8584 58.8606 34.0375 58.052 33.0273C57.2617 32.017 56.6777 30.9165 56.3004 29.7258C55.9232 28.5352 55.7344 27.3896 55.7344 26.2891V25.6938C55.7344 24.467 55.9232 23.2583 56.3004 22.0676C56.6956 20.8769 57.2975 19.7945 58.1058 18.8203C58.9144 17.8461 59.9386 17.0704 61.1782 16.4931C62.4358 15.8978 63.9181 15.6001 65.6247 15.6001C67.4033 15.6001 68.9485 15.9248 70.2603 16.5743C71.5896 17.2057 72.6496 18.1077 73.4399 19.2804C74.2306 20.435 74.7067 21.788 74.8684 23.3395H71.0147C70.8709 22.4375 70.5475 21.6797 70.0444 21.0664C69.5596 20.435 68.9397 19.9659 68.1849 19.6592C67.4304 19.3345 66.5771 19.1721 65.6247 19.1721C64.6547 19.1721 63.7922 19.3435 63.0378 19.6863C62.2833 20.011 61.6543 20.4801 61.1512 21.0935C60.648 21.7068 60.262 22.4285 59.9924 23.2583C59.741 24.0882 59.6151 25.0082 59.6151 26.0185C59.6151 26.9927 59.741 27.8947 59.9924 28.7246C60.262 29.5545 60.6572 30.2851 61.1782 30.9165C61.6993 31.5299 62.3371 32.008 63.0915 32.3507C63.8639 32.6935 64.7535 32.8649 65.7597 32.8649C67.2328 32.8649 68.4725 32.5041 69.4787 31.7825C70.5025 31.0428 71.1223 30.0145 71.3382 28.6975H75.1919C75.0122 30.1047 74.5362 31.3946 73.7634 32.5672C72.991 33.7399 71.931 34.6779 70.5833 35.3815C69.2361 36.0851 67.628 36.4369 65.7597 36.4369Z" fill="#19191B"/>
<path id="Vector_2" d="M76.9657 35.9226V16.1682H80.7118V35.9226H76.9657ZM75.1333 18.9825V16.1682H80.7118V18.9825H75.1333Z" fill="#19191B"/>
<path id="Vector_3" d="M90.675 36.4369C89.3815 36.4369 88.2407 36.2295 87.2523 35.8145C86.2644 35.3996 85.4287 34.8404 84.7463 34.1368C84.0635 33.4152 83.5425 32.6033 83.1832 31.7013C82.8418 30.7993 82.6709 29.8612 82.6709 28.887V28.3187C82.6709 27.3084 82.8506 26.3523 83.2099 25.4502C83.5871 24.5302 84.1173 23.7184 84.8001 23.0148C85.5008 22.2932 86.3453 21.7339 87.3332 21.337C88.3215 20.9221 89.4353 20.7146 90.675 20.7146C91.9147 20.7146 93.0284 20.9221 94.0168 21.337C95.0047 21.7339 95.8404 22.2932 96.5228 23.0148C97.2235 23.7184 97.7537 24.5302 98.113 25.4502C98.4723 26.3523 98.652 27.3084 98.652 28.3187V28.887C98.652 29.8612 98.4723 30.7993 98.113 31.7013C97.7716 32.6033 97.2597 33.4152 96.577 34.1368C95.8942 34.8404 95.0588 35.3996 94.0705 35.8145C93.0826 36.2295 91.9505 36.4369 90.675 36.4369ZM90.675 33.2167C91.5912 33.2167 92.3636 33.0182 92.9926 32.6214C93.6216 32.2064 94.0976 31.6562 94.4211 30.9706C94.7441 30.2671 94.9059 29.4733 94.9059 28.5893C94.9059 27.6873 94.7354 26.8935 94.394 26.208C94.0705 25.5044 93.5853 24.9541 92.9388 24.5572C92.3098 24.1423 91.5553 23.9348 90.675 23.9348C89.7946 23.9348 89.031 24.1423 88.3845 24.5572C87.7555 24.9541 87.2703 25.5044 86.9289 26.208C86.5875 26.8935 86.417 27.6873 86.417 28.5893C86.417 29.4733 86.5787 30.2671 86.9022 30.9706C87.2436 31.6562 87.7284 32.2064 88.3574 32.6214C88.986 33.0182 89.7588 33.2167 90.675 33.2167Z" fill="#19191B"/>
<path id="Vector_4" d="M105.57 36.3827C103.881 36.3827 102.57 35.8235 101.635 34.705C100.719 33.5865 100.261 31.9267 100.261 29.7258V21.2017H104.007V30.0505C104.007 30.9525 104.259 31.6742 104.761 32.2154C105.264 32.7386 105.947 33.0001 106.81 33.0001C107.672 33.0001 108.373 32.7205 108.912 32.1613C109.469 31.602 109.747 30.8443 109.747 29.8882V21.2017H113.493V35.9227H110.529V29.6717H110.825C110.825 31.151 110.637 32.3868 110.259 33.379C109.882 34.3712 109.316 35.1199 108.561 35.6251C107.807 36.1302 106.863 36.3827 105.732 36.3827H105.57Z" fill="#19191B"/>
<path id="Vector_5" d="M122.512 36.4097C121.488 36.4097 120.545 36.2203 119.682 35.8414C118.82 35.4626 118.075 34.9304 117.446 34.2448C116.817 33.5593 116.332 32.7655 115.99 31.8635C115.649 30.9434 115.479 29.9512 115.479 28.8868V28.3185C115.479 27.2722 115.64 26.2889 115.963 25.3689C116.305 24.4488 116.772 23.646 117.365 22.9605C117.976 22.2749 118.703 21.7427 119.548 21.3639C120.41 20.967 121.362 20.7685 122.404 20.7685C123.554 20.7685 124.56 21.0211 125.423 21.5263C126.303 22.0133 127.004 22.753 127.525 23.7453C128.046 24.7375 128.333 25.9823 128.387 27.4796L127.282 26.1807V16.1682H131.028V35.9226H128.064V29.6715H128.711C128.656 31.1689 128.351 32.4227 127.794 33.433C127.237 34.4252 126.501 35.1739 125.584 35.6791C124.686 36.1661 123.662 36.4097 122.512 36.4097ZM123.348 33.2436C124.084 33.2436 124.758 33.0812 125.369 32.7565C125.979 32.4137 126.465 31.9266 126.824 31.2952C127.201 30.6457 127.39 29.888 127.39 29.0221V27.9397C127.39 27.0737 127.201 26.3521 126.824 25.7748C126.447 25.1795 125.953 24.7285 125.342 24.4218C124.731 24.097 124.066 23.9347 123.348 23.9347C122.539 23.9347 121.82 24.1331 121.192 24.53C120.581 24.9089 120.096 25.4501 119.736 26.1537C119.395 26.8572 119.224 27.6781 119.224 28.6162C119.224 29.5543 119.404 30.3751 119.763 31.0787C120.123 31.7643 120.608 32.2965 121.219 32.6753C121.847 33.0541 122.557 33.2436 123.348 33.2436Z" fill="#19191B"/>
<path id="Vector_6" d="M41.6212 38C40.3269 38 39.5296 37.4 38.2268 36.6934C36.924 35.9867 33.1559 33.1416 33.1559 29.6C33.1559 27.1975 32.5392 25.2543 31.4888 23.7057C30.4463 22.169 29.0339 21.1043 27.5646 20.3527C26.8566 19.9906 26.1198 19.6945 25.3861 19.4498C24.9584 19.3072 24.7102 18.8461 24.8958 18.4338C26.072 15.8192 28.6914 14 31.7343 14C35.8763 14 39.2343 17.3717 39.2343 21.531C39.2343 22.4209 39.0806 23.2748 38.7984 24.0672C39.9939 23.2582 41.4343 22.7861 42.9843 22.7861C47.1264 22.7861 50.4841 26.1578 50.4841 30.3172C50.4841 35.3244 46.1022 38 41.6212 38Z" fill="#19191B"/>
<path id="Vector_7" d="M14.2344 29.6896C14.2344 33.6593 16.8408 36.967 20.2937 37.6978C20.8266 37.8933 21.402 38 22.0022 38H33.655C34.0458 38 34.2159 37.4752 33.9176 37.2216C31.8811 35.4914 30.3676 33.0529 30.3676 29.6C30.3676 27.7027 29.8891 26.3208 29.1842 25.282C28.4713 24.2312 27.4687 23.4458 26.2991 22.8474C25.1186 22.2437 23.837 21.8591 22.6132 21.5865C22.3249 21.55 22.0316 21.531 21.7344 21.531C17.5922 21.531 14.2344 25.1838 14.2344 29.6896Z" fill="#19191B"/>
</g>
</svg>
