<svg width="165" height="59" viewBox="0 0 165 59" fill="none" xmlns="http://www.w3.org/2000/svg">
<path d="M74.83 41.342C72.806 41.342 71.0681 40.9838 69.6166 40.2673C68.1652 39.5509 66.9794 38.6196 66.0592 37.4733C65.1598 36.327 64.4953 35.0784 64.066 33.7275C63.6367 32.3765 63.4219 31.0767 63.4219 29.8281V29.1526C63.4219 27.7607 63.6367 26.3893 64.066 25.0383C64.5157 23.6874 65.2006 22.4593 66.1204 21.3539C67.0405 20.2486 68.206 19.3684 69.6166 18.7134C71.0477 18.0379 72.7344 17.7002 74.6763 17.7002C76.7003 17.7002 78.4586 18.0686 79.9513 18.8055C81.464 19.5219 82.6702 20.5454 83.5696 21.8759C84.4693 23.1859 85.011 24.7211 85.1951 26.4814H80.8099C80.6462 25.458 80.2782 24.5982 79.7057 23.9023C79.154 23.1859 78.4487 22.6537 77.5897 22.3057C76.7311 21.9373 75.7602 21.7531 74.6763 21.7531C73.5725 21.7531 72.5912 21.9475 71.7326 22.3365C70.8741 22.7049 70.1583 23.2371 69.5858 23.933C69.0133 24.629 68.574 25.4478 68.2672 26.3893C67.9811 27.3309 67.8379 28.3748 67.8379 29.5211C67.8379 30.6264 67.9811 31.6499 68.2672 32.5914C68.574 33.533 69.0237 34.362 69.6166 35.0784C70.2095 35.7744 70.9353 36.3168 71.7938 36.7057C72.6728 37.0946 73.685 37.2891 74.83 37.2891C76.5063 37.2891 77.9169 36.8797 79.062 36.061C80.2269 35.2217 80.9323 34.055 81.178 32.5608H85.5632C85.3587 34.1573 84.817 35.6209 83.9376 36.9514C83.0587 38.2818 81.8525 39.3462 80.319 40.1445C78.7859 40.9428 76.956 41.342 74.83 41.342Z" fill="#19191B"/>
<path d="M87.5817 40.7583V18.3447H91.8446V40.7583H87.5817ZM85.4966 21.5379V18.3447H91.8446V21.5379H85.4966Z" fill="#19191B"/>
<path d="M103.182 41.3417C101.71 41.3417 100.412 41.1064 99.2871 40.6355C98.1629 40.1648 97.2119 39.5302 96.4354 38.7319C95.6585 37.9132 95.0655 36.9921 94.6567 35.9686C94.2682 34.9452 94.0737 33.8808 94.0737 32.7754V32.1306C94.0737 30.9844 94.2782 29.8995 94.687 28.8761C95.1163 27.8322 95.7197 26.911 96.4966 26.1127C97.294 25.294 98.2549 24.6595 99.3791 24.2091C100.504 23.7383 101.771 23.5029 103.182 23.5029C104.592 23.5029 105.86 23.7383 106.985 24.2091C108.109 24.6595 109.06 25.294 109.836 26.1127C110.634 26.911 111.237 27.8322 111.646 28.8761C112.055 29.8995 112.259 30.9844 112.259 32.1306V32.7754C112.259 33.8808 112.055 34.9452 111.646 35.9686C111.257 36.9921 110.675 37.9132 109.898 38.7319C109.121 39.5302 108.17 40.1648 107.046 40.6355C105.922 41.1064 104.633 41.3417 103.182 41.3417ZM103.182 37.688C104.224 37.688 105.103 37.4628 105.819 37.0125C106.535 36.5417 107.077 35.9174 107.445 35.1396C107.812 34.3413 107.996 33.4407 107.996 32.4377C107.996 31.4142 107.802 30.5136 107.414 29.7358C107.046 28.9375 106.494 28.3132 105.758 27.8628C105.042 27.3921 104.184 27.1567 103.182 27.1567C102.18 27.1567 101.311 27.3921 100.575 27.8628C99.8596 28.3132 99.3075 28.9375 98.919 29.7358C98.5305 30.5136 98.3365 31.4142 98.3365 32.4377C98.3365 33.4407 98.5206 34.3413 98.8887 35.1396C99.2771 35.9174 99.8288 36.5417 100.545 37.0125C101.26 37.4628 102.139 37.688 103.182 37.688Z" fill="#19191B"/>
<path d="M120.131 41.2804C118.209 41.2804 116.717 40.6458 115.654 39.3767C114.612 38.1076 114.09 36.2245 114.09 33.7273V24.0557H118.353V34.0957C118.353 35.1192 118.639 35.9379 119.211 36.552C119.784 37.1456 120.561 37.4424 121.542 37.4424C122.523 37.4424 123.321 37.1252 123.934 36.4906C124.568 35.8561 124.885 34.9964 124.885 33.9115V24.0557H129.147V40.7584H125.774V33.6659H126.111C126.111 35.3443 125.897 36.7465 125.467 37.8723C125.038 38.998 124.394 39.8475 123.535 40.4207C122.677 40.9938 121.603 41.2804 120.315 41.2804H120.131Z" fill="#19191B"/>
<path d="M139.411 41.311C138.245 41.311 137.172 41.0961 136.19 40.6662C135.209 40.2364 134.361 39.6326 133.645 38.8547C132.93 38.0769 132.378 37.1763 131.989 36.1528C131.601 35.1089 131.407 33.9831 131.407 32.7754V32.1306C131.407 30.9435 131.591 29.8279 131.958 28.784C132.347 27.74 132.879 26.8292 133.553 26.0513C134.248 25.2735 135.076 24.6697 136.037 24.2398C137.019 23.7895 138.102 23.5643 139.288 23.5643C140.596 23.5643 141.741 23.8509 142.722 24.424C143.724 24.9767 144.522 25.8159 145.114 26.9418C145.707 28.0675 146.035 29.4799 146.096 31.1788L144.838 29.705V18.3447H149.101V40.7583H145.728V33.6658H146.464C146.402 35.3647 146.055 36.7874 145.421 37.9336C144.787 39.0594 143.949 39.9089 142.906 40.482C141.884 41.0347 140.719 41.311 139.411 41.311ZM140.361 37.7187C141.199 37.7187 141.966 37.5345 142.661 37.166C143.356 36.7771 143.908 36.2244 144.317 35.5081C144.746 34.7711 144.961 33.9114 144.961 32.9289V31.7008C144.961 30.7182 144.746 29.8995 144.317 29.2445C143.888 28.569 143.326 28.0573 142.63 27.7093C141.935 27.3409 141.179 27.1566 140.361 27.1566C139.441 27.1566 138.623 27.3818 137.908 27.8322C137.213 28.262 136.661 28.876 136.252 29.6744C135.864 30.4726 135.669 31.404 135.669 32.4684C135.669 33.5328 135.874 34.4641 136.282 35.2624C136.691 36.0402 137.243 36.6441 137.939 37.0739C138.654 37.5037 139.462 37.7187 140.361 37.7187Z" fill="#19191B"/>
<path d="M47.3625 43.1155C45.8897 43.1155 44.9824 42.4348 43.4999 41.633C42.0174 40.8312 37.7296 37.6031 37.7296 33.5848C37.7296 30.8588 37.0278 28.654 35.8326 26.897C34.6462 25.1534 33.0391 23.9454 31.3671 23.0927C30.5614 22.6818 29.723 22.3459 28.8881 22.0682C28.4014 21.9064 28.119 21.3832 28.3302 20.9154C29.6686 17.9488 32.6493 15.8848 36.1119 15.8848C40.8253 15.8848 44.6464 19.7103 44.6464 24.4296C44.6464 25.4392 44.4715 26.4081 44.1504 27.3072C45.5108 26.3893 47.1499 25.8536 48.9137 25.8536C53.627 25.8536 57.4479 29.6792 57.4479 34.3985C57.4479 40.0798 52.4616 43.1155 47.3625 43.1155Z" fill="#19191B"/>
<path d="M16.1978 33.6866C16.1978 38.1907 19.1637 41.9436 23.0928 42.7728C23.6993 42.9946 24.354 43.1156 25.037 43.1156H38.2971C38.7417 43.1156 38.9354 42.5202 38.5959 42.2325C36.2785 40.2693 34.5563 37.5026 34.5563 33.5849C34.5563 31.4322 34.0118 29.8643 33.2097 28.6856C32.3984 27.4934 31.2575 26.6023 29.9266 25.9233C28.5833 25.2384 27.1249 24.802 25.7323 24.4926C25.4043 24.4512 25.0704 24.4297 24.7322 24.4297C20.0187 24.4297 16.1978 28.5742 16.1978 33.6866Z" fill="#19191B"/>
</svg>
