<svg width="256" height="183" viewBox="0 0 256 183" fill="none" xmlns="http://www.w3.org/2000/svg">
<mask id="path-1-inside-1_231_1727" fill="white">
<path d="M256 183C256 152.688 248.47 122.851 234.088 96.1681C219.705 69.4856 198.919 46.7937 173.598 30.1307C148.277 13.4676 119.213 3.35541 89.0173 0.702314C58.8216 -1.95078 28.4397 2.93834 0.600731 14.9305L0.979301 15.8094C28.6727 3.87987 58.8957 -0.983691 88.9335 1.65554C118.971 4.29476 147.883 14.3541 173.072 30.93C198.261 47.5059 218.938 70.0792 233.245 96.6221C247.553 123.165 255.043 152.846 255.043 183H256Z"/>
</mask>
<path d="M256 183C256 152.688 248.47 122.851 234.088 96.1681C219.705 69.4856 198.919 46.7937 173.598 30.1307C148.277 13.4676 119.213 3.35541 89.0173 0.702314C58.8216 -1.95078 28.4397 2.93834 0.600731 14.9305L0.979301 15.8094C28.6727 3.87987 58.8957 -0.983691 88.9335 1.65554C118.971 4.29476 147.883 14.3541 173.072 30.93C198.261 47.5059 218.938 70.0792 233.245 96.6221C247.553 123.165 255.043 152.846 255.043 183H256Z" fill="#19191B" stroke="#FF8C68" stroke-width="2" mask="url(#path-1-inside-1_231_1727)"/>
</svg>
