<svg width="611" height="820" viewBox="0 0 611 820" fill="none" xmlns="http://www.w3.org/2000/svg">
<path d="M773.406 762.864C824.307 811.781 826.442 894.454 766.295 931.416C700.237 972.01 625.173 997.088 546.784 1003.93C425.57 1014.52 304.63 980.792 206.389 909.004C108.148 837.216 39.2708 732.24 12.5302 613.539C-14.2104 494.839 2.99955 370.469 60.9688 263.49C118.938 156.512 213.733 74.1832 327.777 31.7708C441.821 -10.6416 567.376 -10.2604 681.16 32.8437C794.945 75.9478 889.238 158.85 946.557 266.179C983.625 335.588 1003.6 412.167 1005.66 489.674C1007.54 560.246 937.116 603.599 868.341 587.667C799.566 571.734 760.058 500.127 739.901 432.47C735.201 416.692 728.906 401.324 721.049 386.611C692.874 333.854 646.524 293.104 590.594 271.916C534.664 250.729 472.948 250.541 416.89 271.389C360.833 292.237 314.236 332.705 285.742 385.29C257.247 437.874 248.788 499.008 261.932 557.355C275.076 615.701 308.932 667.302 357.222 702.589C405.512 737.876 464.96 754.455 524.542 749.251C541.158 747.8 557.471 744.682 573.255 740.005C640.942 719.948 722.504 713.947 773.406 762.864Z" fill="url(#paint0_linear_231_2491)"/>
<defs>
<linearGradient id="paint0_linear_231_2491" x1="701.089" y1="659.349" x2="299.973" y2="43.0667" gradientUnits="userSpaceOnUse">
<stop stop-color="#FFD4AC"/>
<stop offset="0.693925" stop-color="#FFF1E3"/>
</linearGradient>
</defs>
</svg>
