<svg width="32" height="32" viewBox="0 0 32 32" fill="none" xmlns="http://www.w3.org/2000/svg">
<g clip-path="url(#clip0_231_2117)">
<path d="M31.9994 16.3674C31.9994 15.2797 31.9094 14.1862 31.7175 13.1162H16.3203V19.2775H25.1376C24.7717 21.2647 23.596 23.0225 21.8746 24.1395V28.1373H27.1349C30.224 25.3506 31.9994 21.2353 31.9994 16.3674Z" fill="#4285F4"/>
<path d="M16.3218 32C20.7244 32 24.4373 30.5831 27.1424 28.1374L21.8821 24.1396C20.4185 25.1155 18.5291 25.6682 16.3278 25.6682C12.0691 25.6682 8.45827 22.8521 7.16268 19.0659H1.73438V23.1872C4.50551 28.5901 10.1497 32 16.3218 32Z" fill="#34A853"/>
<path d="M7.15486 19.0661C6.47107 17.079 6.47107 14.9272 7.15486 12.9401V8.81885H1.73255C-0.582725 13.3399 -0.582725 18.6664 1.73255 23.1874L7.15486 19.0661Z" fill="#FFD805"/>
<path d="M16.3218 6.3319C18.6491 6.29663 20.8984 7.15498 22.5839 8.73058L27.2444 4.16251C24.2933 1.44636 20.3766 -0.0469312 16.3218 0.000101659C10.1497 0.000101659 4.50551 3.40999 1.73438 8.81877L7.15668 12.94C8.44628 9.148 12.0631 6.3319 16.3218 6.3319Z" fill="#FF3F00"/>
</g>
<defs>
<clipPath id="clip0_231_2117">
<rect width="32" height="32" fill="white"/>
</clipPath>
</defs>
</svg>
